<svg xmlns="http://www.w3.org/2000/svg" width="45" height="45"><path d="M22 10c10.5 1 16.5 8 16 29H15c0-9 10-6.5 8-21" fill-rule="evenodd" stroke="#000" stroke-linecap="round"/><path d="M24 18c.384 2.911-5.553 7.369-8 9-3 2-2.819 4.343-5 4-1.042-.944 1.413-3.038 0-3-1 0 .187 1.232-1 2-1 0-4.003 1-4-4 0-2 6-12 6-12s1.886-1.902 2-3.5c-.726-.994-.5-2-.5-3 1-1 3 2.5 3 2.5h2s.782-1.992 2.5-3c1 0 1 3 1 3" fill-rule="evenodd" stroke="#000" stroke-linecap="round" stroke-linejoin="round"/><path d="M9.5 25.5a.5.5 0 1 1-1 0 .5.5 0 1 1 1 0z" stroke="#fff" stroke-linecap="round" stroke-linejoin="round"/><path d="M14.933 15.75a.5 1.5 30 1 1-.866-.5.5 1.5 30 1 1 .866.5z" stroke="#fff" stroke-linecap="round" stroke-linejoin="round" stroke-width=".99998"/><path d="M24.55 10.4l-.3 1.1.55.1c3.101.477 6.324 2.234 8.575 6.494C35.626 22.353 36.297 29.057 35.8 39l-.05.5h1.75V39c.503-10.057-.876-16.853-3.25-21.344-2.374-4.49-5.789-6.633-9.187-7.156l-.513-.1z" fill="#fff" fill-rule="evenodd"/></svg>