<svg xmlns="http://www.w3.org/2000/svg" xmlns:xlink="http://www.w3.org/1999/xlink" width="1200" height="400" version="1"><defs><linearGradient id="a"><stop offset="0"/><stop offset="1"/></linearGradient><linearGradient id="b"><stop offset="0" stop-color="#ede3de"/><stop offset="1" stop-color="#8a6737"/></linearGradient><linearGradient id="c"><stop offset="0" stop-color="gray"/><stop offset="1" stop-color="gray"/></linearGradient><linearGradient id="d"><stop offset="0" stop-color="#000e1c"/><stop offset="1" stop-color="#50506f"/></linearGradient><linearGradient xlink:href="#a" id="aN" gradientUnits="userSpaceOnUse" gradientTransform="matrix(1.06837 0 0 1.07038 -1090.143 131.116)" x1="1081.432" y1="164.366" x2="1122.521" y2="163.431"/><linearGradient xlink:href="#a" id="aM" gradientUnits="userSpaceOnUse" gradientTransform="matrix(1.06837 0 0 1.07038 -1111.75 89.858)" x1="1075.827" y1="163.431" x2="1122.521" y2="163.431"/><linearGradient xlink:href="#a" id="aL" gradientUnits="userSpaceOnUse" gradientTransform="matrix(1.33896 0 0 1.52656 -855.976 151.242)" x1="660.518" y1="90.377" x2="757.722" y2="103.719"/><linearGradient xlink:href="#a" id="aK" gradientUnits="userSpaceOnUse" gradientTransform="matrix(1.06837 0 0 1.07038 -1081.306 78.358)" x1="1075.827" y1="163.431" x2="1122.521" y2="163.431"/><linearGradient xlink:href="#a" id="aJ" gradientUnits="userSpaceOnUse" gradientTransform="matrix(1.06837 0 0 1.07038 -1088.026 146.672)" x1="1075.827" y1="163.431" x2="1122.521" y2="163.431"/><linearGradient xlink:href="#a" id="aI" gradientUnits="userSpaceOnUse" gradientTransform="matrix(1.06837 0 0 1.07038 -1076.719 182.654)" x1="1075.827" y1="163.431" x2="1122.521" y2="163.431"/><linearGradient xlink:href="#a" id="aH" gradientUnits="userSpaceOnUse" gradientTransform="matrix(1.06837 0 0 1.07038 -1076.719 196.654)" x1="1075.827" y1="163.431" x2="1122.521" y2="163.431"/><linearGradient xlink:href="#b" id="aF" gradientUnits="userSpaceOnUse" gradientTransform="matrix(1.33896 0 0 1.52656 -849.987 151.242)" x1="660.518" y1="90.377" x2="757.722" y2="103.719"/><linearGradient xlink:href="#a" id="aG" gradientUnits="userSpaceOnUse" gradientTransform="matrix(1.33896 0 0 1.52656 -849.987 151.242)" x1="660.518" y1="90.377" x2="757.722" y2="103.719"/><linearGradient xlink:href="#a" id="aE" gradientUnits="userSpaceOnUse" gradientTransform="matrix(.92209 0 0 .92209 64.379 195.708)" x1="824.633" y1="119.493" x2="992.659" y2="168.487"/><linearGradient xlink:href="#a" id="aD" gradientUnits="userSpaceOnUse" gradientTransform="matrix(.92209 0 0 .92209 70.52 191.198)" x1="906.486" y1="78.62" x2="986.086" y2="78.62"/><linearGradient xlink:href="#a" id="aC" gradientUnits="userSpaceOnUse" gradientTransform="matrix(.92209 0 0 .92209 68.524 205.172)" x1="906.486" y1="78.62" x2="986.086" y2="78.62"/><linearGradient xlink:href="#a" id="aB" gradientUnits="userSpaceOnUse" gradientTransform="matrix(.92209 0 0 .92209 70.367 193.864)" x1="916.035" y1="100.629" x2="923.017" y2="100.629"/><linearGradient xlink:href="#a" id="aA" gradientUnits="userSpaceOnUse" gradientTransform="matrix(.92209 0 0 .92209 70.828 200.78)" x1="828.487" y1="120.724" x2="836.359" y2="120.724"/><linearGradient xlink:href="#a" id="az" gradientUnits="userSpaceOnUse" gradientTransform="rotate(-14.418 1632.79 -120.993) scale(.92209)" x1="866.442" y1="74.657" x2="876.042" y2="74.657"/><linearGradient xlink:href="#a" id="ay" gradientUnits="userSpaceOnUse" gradientTransform="rotate(-14.418 1637.22 -112.1) scale(.92209)" x1="859.858" y1="69.92" x2="880.838" y2="69.92"/><linearGradient xlink:href="#b" id="aw" gradientUnits="userSpaceOnUse" gradientTransform="matrix(.92209 0 0 .92209 70.367 195.708)" x1="824.633" y1="119.493" x2="992.659" y2="168.487"/><linearGradient xlink:href="#a" id="ax" gradientUnits="userSpaceOnUse" gradientTransform="matrix(.92209 0 0 .92209 70.367 195.708)" x1="824.633" y1="119.493" x2="992.659" y2="168.487"/><linearGradient xlink:href="#a" id="av" gradientUnits="userSpaceOnUse" gradientTransform="matrix(1.33896 0 0 1.52656 -657.654 150.242)" x1="660.518" y1="90.377" x2="757.722" y2="103.719"/><linearGradient xlink:href="#a" id="au" gradientUnits="userSpaceOnUse" gradientTransform="matrix(1.06837 0 0 1.07038 -881.598 154.84)" x1="1075.827" y1="163.431" x2="1122.521" y2="163.431"/><linearGradient xlink:href="#a" id="at" gradientUnits="userSpaceOnUse" gradientTransform="matrix(1.06837 0 0 1.07038 -878.896 184.654)" x1="1075.827" y1="163.431" x2="1122.521" y2="163.431"/><linearGradient xlink:href="#a" id="as" gradientUnits="userSpaceOnUse" gradientTransform="matrix(1.06837 0 0 1.07038 -878.896 200.654)" x1="1075.827" y1="163.431" x2="1122.521" y2="163.431"/><linearGradient xlink:href="#b" id="aq" gradientUnits="userSpaceOnUse" gradientTransform="matrix(1.33896 0 0 1.52656 -651.665 150.242)" x1="660.518" y1="90.377" x2="757.722" y2="103.719"/><linearGradient xlink:href="#a" id="ar" gradientUnits="userSpaceOnUse" gradientTransform="matrix(1.33896 0 0 1.52656 -651.665 150.242)" x1="660.518" y1="90.377" x2="757.722" y2="103.719"/><linearGradient xlink:href="#a" id="ap" gradientUnits="userSpaceOnUse" gradientTransform="matrix(1.33896 0 0 1.5237 -453.662 149.338)" x1="660.518" y1="90.377" x2="757.722" y2="103.719"/><linearGradient xlink:href="#a" id="ao" gradientUnits="userSpaceOnUse" gradientTransform="translate(-690.078 90.974) scale(1.06837)" x1="1075.827" y1="163.431" x2="1122.521" y2="163.431"/><linearGradient xlink:href="#a" id="an" gradientUnits="userSpaceOnUse" gradientTransform="translate(-668.552 108.145) scale(1.06837)" x1="1075.827" y1="163.431" x2="1122.521" y2="163.431"/><linearGradient xlink:href="#a" id="am" gradientUnits="userSpaceOnUse" gradientTransform="translate(-668.552 179.097) scale(1.06837)" x1="1075.827" y1="163.431" x2="1122.521" y2="163.431"/><linearGradient xlink:href="#a" id="al" gradientUnits="userSpaceOnUse" gradientTransform="translate(-673.845 197.537) scale(1.06837)" x1="1075.827" y1="163.431" x2="1122.521" y2="163.431"/><linearGradient xlink:href="#b" id="aj" gradientUnits="userSpaceOnUse" gradientTransform="matrix(1.33896 0 0 1.5237 -447.673 149.338)" x1="660.518" y1="90.377" x2="757.722" y2="103.719"/><linearGradient xlink:href="#a" id="ak" gradientUnits="userSpaceOnUse" gradientTransform="matrix(1.33896 0 0 1.5237 -447.673 149.338)" x1="660.518" y1="90.377" x2="757.722" y2="103.719"/><linearGradient xlink:href="#a" id="ai" gradientUnits="userSpaceOnUse" gradientTransform="matrix(.13841 0 0 .1387 987.796 226.619)" x1="477.836" y1="745.695" x2="1070.062" y2="749.175"/><linearGradient xlink:href="#a" id="ah" gradientUnits="userSpaceOnUse" gradientTransform="translate(37.963 148.44) scale(.96536)" x1="1075.827" y1="163.431" x2="1122.521" y2="163.431"/><linearGradient xlink:href="#a" id="ag" gradientUnits="userSpaceOnUse" gradientTransform="translate(37.963 183.128) scale(.96536)" x1="1075.827" y1="163.431" x2="1122.521" y2="163.431"/><linearGradient xlink:href="#a" id="af" gradientUnits="userSpaceOnUse" gradientTransform="translate(37.963 216.015) scale(.96536)" x1="1075.827" y1="163.431" x2="1122.521" y2="163.431"/><linearGradient xlink:href="#b" id="ad" gradientUnits="userSpaceOnUse" gradientTransform="matrix(.13841 0 0 .1387 994.854 225.913)" x1="462.129" y1="776.052" x2="1135.166" y2="839.359"/><linearGradient xlink:href="#a" id="ae" gradientUnits="userSpaceOnUse" gradientTransform="matrix(.13841 0 0 .1387 994.854 225.913)" x1="477.836" y1="745.695" x2="1070.062" y2="749.175"/><linearGradient xlink:href="#a" id="ac" gradientUnits="userSpaceOnUse" gradientTransform="matrix(1.34148 0 0 1.52656 -256.18 144.673)" x1="683" y1="74" x2="739.5" y2="69"/><linearGradient xlink:href="#a" id="ab" gradientUnits="userSpaceOnUse" gradientTransform="translate(-484.546 115.733) scale(1.07038)" x1="1075.827" y1="163.431" x2="1122.521" y2="163.431"/><linearGradient xlink:href="#a" id="aa" gradientUnits="userSpaceOnUse" gradientTransform="translate(-478.182 137.83) scale(1.07038)" x1="1075.827" y1="163.431" x2="1122.521" y2="163.431"/><linearGradient xlink:href="#a" id="Z" gradientUnits="userSpaceOnUse" gradientTransform="translate(-478.182 180.787) scale(1.07038)" x1="1075.827" y1="163.431" x2="1122.521" y2="163.431"/><linearGradient xlink:href="#a" id="Y" gradientUnits="userSpaceOnUse" gradientTransform="translate(-478.182 197.913) scale(1.07038)" x1="1075.827" y1="163.431" x2="1122.521" y2="163.431"/><linearGradient xlink:href="#b" id="W" gradientUnits="userSpaceOnUse" gradientTransform="matrix(1.34148 0 0 1.52656 -250.523 147.501)" x1="683" y1="74" x2="739.5" y2="69"/><linearGradient xlink:href="#a" id="X" gradientUnits="userSpaceOnUse" gradientTransform="matrix(1.34148 0 0 1.52656 -250.523 147.501)" x1="683" y1="74" x2="739.5" y2="69"/><linearGradient xlink:href="#c" id="V" gradientUnits="userSpaceOnUse" gradientTransform="matrix(1.06837 0 0 1.07038 -1090.143 -68.884)" x1="1081.432" y1="164.366" x2="1122.521" y2="163.431"/><linearGradient xlink:href="#c" id="U" gradientUnits="userSpaceOnUse" gradientTransform="matrix(1.06837 0 0 1.07038 -1111.75 -110.142)" x1="1075.827" y1="163.431" x2="1122.521" y2="163.431"/><linearGradient xlink:href="#c" id="T" gradientUnits="userSpaceOnUse" gradientTransform="matrix(1.33896 0 0 1.52656 -855.976 -48.758)" x1="660.518" y1="90.377" x2="757.722" y2="103.719"/><linearGradient xlink:href="#c" id="S" gradientUnits="userSpaceOnUse" gradientTransform="matrix(1.06837 0 0 1.07038 -1081.306 -121.642)" x1="1075.827" y1="163.431" x2="1122.521" y2="163.431"/><linearGradient xlink:href="#c" id="R" gradientUnits="userSpaceOnUse" gradientTransform="matrix(1.06837 0 0 1.07038 -1088.026 -53.328)" x1="1075.827" y1="163.431" x2="1122.521" y2="163.431"/><linearGradient xlink:href="#c" id="Q" gradientUnits="userSpaceOnUse" gradientTransform="matrix(1.06837 0 0 1.07038 -1076.719 -17.346)" x1="1075.827" y1="163.431" x2="1122.521" y2="163.431"/><linearGradient xlink:href="#c" id="P" gradientUnits="userSpaceOnUse" gradientTransform="matrix(1.06837 0 0 1.07038 -1076.719 -3.346)" x1="1075.827" y1="163.431" x2="1122.521" y2="163.431"/><linearGradient xlink:href="#d" id="N" gradientUnits="userSpaceOnUse" gradientTransform="matrix(1.33896 0 0 1.52656 -849.987 -48.758)" x1="660.518" y1="90.377" x2="757.722" y2="103.719"/><linearGradient xlink:href="#c" id="O" gradientUnits="userSpaceOnUse" gradientTransform="matrix(1.33896 0 0 1.52656 -849.987 -48.758)" x1="660.518" y1="90.377" x2="757.722" y2="103.719"/><linearGradient xlink:href="#c" id="M" gradientUnits="userSpaceOnUse" gradientTransform="matrix(.92209 0 0 .92209 64.379 -4.292)" x1="824.633" y1="119.493" x2="992.659" y2="168.487"/><linearGradient xlink:href="#c" id="L" gradientUnits="userSpaceOnUse" gradientTransform="matrix(.92209 0 0 .92209 70.52 -8.802)" x1="906.486" y1="78.62" x2="986.086" y2="78.62"/><linearGradient xlink:href="#c" id="K" gradientUnits="userSpaceOnUse" gradientTransform="matrix(.92209 0 0 .92209 68.524 5.172)" x1="906.486" y1="78.62" x2="986.086" y2="78.62"/><linearGradient xlink:href="#c" id="J" gradientUnits="userSpaceOnUse" gradientTransform="matrix(.92209 0 0 .92209 70.367 -6.136)" x1="916.035" y1="100.629" x2="923.017" y2="100.629"/><linearGradient xlink:href="#c" id="I" gradientUnits="userSpaceOnUse" gradientTransform="matrix(.92209 0 0 .92209 70.828 .78)" x1="828.487" y1="120.724" x2="836.359" y2="120.724"/><linearGradient xlink:href="#c" id="H" gradientUnits="userSpaceOnUse" gradientTransform="rotate(-14.418 842.212 -220.995) scale(.92209)" x1="866.442" y1="74.657" x2="876.042" y2="74.657"/><linearGradient xlink:href="#c" id="G" gradientUnits="userSpaceOnUse" gradientTransform="rotate(-14.418 846.642 -212.102) scale(.92209)" x1="859.858" y1="69.92" x2="880.838" y2="69.92"/><linearGradient xlink:href="#d" id="E" gradientUnits="userSpaceOnUse" gradientTransform="matrix(.92209 0 0 .92209 70.367 -4.292)" x1="824.633" y1="119.493" x2="992.659" y2="168.487"/><linearGradient xlink:href="#c" id="F" gradientUnits="userSpaceOnUse" gradientTransform="matrix(.92209 0 0 .92209 70.367 -4.292)" x1="824.633" y1="119.493" x2="992.659" y2="168.487"/><linearGradient xlink:href="#c" id="D" gradientUnits="userSpaceOnUse" gradientTransform="matrix(1.33896 0 0 1.52656 -657.654 -49.758)" x1="660.518" y1="90.377" x2="757.722" y2="103.719"/><linearGradient xlink:href="#c" id="C" gradientUnits="userSpaceOnUse" gradientTransform="matrix(1.06837 0 0 1.07038 -881.598 -45.16)" x1="1075.827" y1="163.431" x2="1122.521" y2="163.431"/><linearGradient xlink:href="#c" id="B" gradientUnits="userSpaceOnUse" gradientTransform="matrix(1.06837 0 0 1.07038 -878.896 -15.346)" x1="1075.827" y1="163.431" x2="1122.521" y2="163.431"/><linearGradient xlink:href="#c" id="A" gradientUnits="userSpaceOnUse" gradientTransform="matrix(1.06837 0 0 1.07038 -878.896 .654)" x1="1075.827" y1="163.431" x2="1122.521" y2="163.431"/><linearGradient xlink:href="#d" id="y" gradientUnits="userSpaceOnUse" gradientTransform="matrix(1.33896 0 0 1.52656 -651.665 -49.758)" x1="660.518" y1="90.377" x2="757.722" y2="103.719"/><linearGradient xlink:href="#c" id="z" gradientUnits="userSpaceOnUse" gradientTransform="matrix(1.33896 0 0 1.52656 -651.665 -49.758)" x1="660.518" y1="90.377" x2="757.722" y2="103.719"/><linearGradient xlink:href="#c" id="x" gradientUnits="userSpaceOnUse" gradientTransform="matrix(1.33896 0 0 1.5237 -453.662 -50.662)" x1="660.518" y1="90.377" x2="757.722" y2="103.719"/><linearGradient xlink:href="#c" id="w" gradientUnits="userSpaceOnUse" gradientTransform="translate(-690.078 -109.026) scale(1.06837)" x1="1075.827" y1="163.431" x2="1122.521" y2="163.431"/><linearGradient xlink:href="#c" id="v" gradientUnits="userSpaceOnUse" gradientTransform="translate(-668.552 -91.855) scale(1.06837)" x1="1075.827" y1="163.431" x2="1122.521" y2="163.431"/><linearGradient xlink:href="#c" id="u" gradientUnits="userSpaceOnUse" gradientTransform="translate(-668.552 -20.903) scale(1.06837)" x1="1075.827" y1="163.431" x2="1122.521" y2="163.431"/><linearGradient xlink:href="#c" id="t" gradientUnits="userSpaceOnUse" gradientTransform="translate(-673.845 -2.463) scale(1.06837)" x1="1075.827" y1="163.431" x2="1122.521" y2="163.431"/><linearGradient xlink:href="#d" id="r" gradientUnits="userSpaceOnUse" gradientTransform="matrix(1.33896 0 0 1.5237 -447.673 -50.662)" x1="660.518" y1="90.377" x2="757.722" y2="103.719"/><linearGradient xlink:href="#c" id="s" gradientUnits="userSpaceOnUse" gradientTransform="matrix(1.33896 0 0 1.5237 -447.673 -50.662)" x1="660.518" y1="90.377" x2="757.722" y2="103.719"/><linearGradient xlink:href="#c" id="q" gradientUnits="userSpaceOnUse" gradientTransform="matrix(.13841 0 0 .1387 987.796 26.619)" x1="477.836" y1="745.695" x2="1070.062" y2="749.175"/><linearGradient xlink:href="#c" id="p" gradientUnits="userSpaceOnUse" gradientTransform="translate(37.963 -51.56) scale(.96536)" x1="1075.827" y1="163.431" x2="1122.521" y2="163.431"/><linearGradient xlink:href="#c" id="o" gradientUnits="userSpaceOnUse" gradientTransform="translate(37.963 -16.872) scale(.96536)" x1="1075.827" y1="163.431" x2="1122.521" y2="163.431"/><linearGradient xlink:href="#c" id="n" gradientUnits="userSpaceOnUse" gradientTransform="translate(37.963 16.015) scale(.96536)" x1="1075.827" y1="163.431" x2="1122.521" y2="163.431"/><linearGradient xlink:href="#d" id="l" gradientUnits="userSpaceOnUse" gradientTransform="matrix(.13841 0 0 .1387 994.854 25.913)" x1="462.129" y1="776.052" x2="1135.166" y2="839.359"/><linearGradient xlink:href="#c" id="m" gradientUnits="userSpaceOnUse" gradientTransform="matrix(.13841 0 0 .1387 994.854 25.913)" x1="477.836" y1="745.695" x2="1070.062" y2="749.175"/><linearGradient xlink:href="#c" id="k" gradientUnits="userSpaceOnUse" gradientTransform="matrix(1.34148 0 0 1.52656 -256.18 -55.327)" x1="683" y1="74" x2="739.5" y2="69"/><linearGradient xlink:href="#c" id="j" gradientUnits="userSpaceOnUse" gradientTransform="translate(-484.546 -84.268) scale(1.07038)" x1="1075.827" y1="163.431" x2="1122.521" y2="163.431"/><linearGradient xlink:href="#c" id="i" gradientUnits="userSpaceOnUse" gradientTransform="translate(-478.182 -62.17) scale(1.07038)" x1="1075.827" y1="163.431" x2="1122.521" y2="163.431"/><linearGradient xlink:href="#c" id="h" gradientUnits="userSpaceOnUse" gradientTransform="translate(-478.182 -19.213) scale(1.07038)" x1="1075.827" y1="163.431" x2="1122.521" y2="163.431"/><linearGradient xlink:href="#c" id="g" gradientUnits="userSpaceOnUse" gradientTransform="translate(-478.182 -2.087) scale(1.07038)" x1="1075.827" y1="163.431" x2="1122.521" y2="163.431"/><linearGradient xlink:href="#d" id="e" gradientUnits="userSpaceOnUse" gradientTransform="matrix(1.34148 0 0 1.52656 -250.523 -52.499)" x1="683" y1="74" x2="739.5" y2="69"/><linearGradient xlink:href="#c" id="f" gradientUnits="userSpaceOnUse" gradientTransform="matrix(1.34148 0 0 1.52656 -250.523 -52.499)" x1="683" y1="74" x2="739.5" y2="69"/></defs><path fill="none" d="M600 0h200v200H600z"/><path d="M699.917 14.275c-7.372 0-13.355 4.986-13.355 11.13 0 1.777.5 3.447 1.39 4.938-15.248 4.282-26.257 16.912-26.257 35.161.605 16.636 9.022 32.054 22.536 41.63-13.488 5.292-.66 11.2-.66 25.306-9.807 17.69-13.183 19.37-29.875 31.787-1.3.92-11.322 1.988-12.242 3.165-6.887 8.814-3.183 23.534 9.738 24.38 9.076.594 89.327.756 98.701-.278 14.385-1.588 16.62-16.63 9.982-24.937-1.017-1.272-11.134-2.385-12.555-3.269-13.13-7.17-29.77-17.668-34.292-30.848 0-14.104 15.05-20.013 1.565-25.306 13.941-9.614 21.973-23.602 23.545-41.63.86-9.853-4.585-19.718-13.007-26.745l-13.772 31.197c-1.405 3.186-5.091 4.639-8.278 3.234-3.186-1.404-4.639-5.125-3.234-8.312l14.468-32.796a42.25 42.25 0 0 0-2.852-1.113c1.145-1.641 1.809-3.53 1.809-5.565 0-6.143-5.983-11.129-13.355-11.129z" fill="url(#e)" stroke="url(#f)" stroke-width="5" stroke-linecap="round" stroke-linejoin="round"/><path d="M662.479 172.847h76.028" opacity=".5" fill="none" stroke="url(#g)" stroke-width="5" stroke-linecap="round" stroke-linejoin="round"/><path d="M683.886 155.72h31.073" opacity=".5" fill="none" stroke="url(#h)" stroke-width="5" stroke-linecap="round" stroke-linejoin="round"/><path d="M688.168 112.765h22.51" opacity=".5" fill="none" stroke="url(#i)" stroke-width="5" stroke-linecap="round" stroke-linejoin="round"/><path d="M674.694 91.373c8.595 10.397 50.644 7.606 61.478-27.577" opacity=".5" fill="none" stroke="url(#j)" stroke-width="5" stroke-linecap="round" stroke-linejoin="round"/><path d="M744.236 188.665c14.385-1.587 16.62-10.63 9.982-18.936-1.017-1.272-11.133-2.385-12.555-3.27-13.13-7.17-29.77-19.668-34.292-32.848 0-14.103 15.05-24.012 1.565-29.305 13.941-9.614 21.973-23.602 23.545-41.63.86-9.854-1.05-11.233-9.471-18.26" opacity=".5" fill="none" stroke="url(#k)" stroke-width="5" stroke-linecap="round" stroke-linejoin="round"/><g><path fill="none" d="M1000 0h200v200h-200z"/><path d="M1100.04 49.17c-15.463.174-27.816 12.392-28.84 26.607-.508 7.05 9.707 19.077 15.687 22.837-29.448 6.638-.573 15.127-.573 27.362 0 8.454-11.456 14.087-5.184 19.513-3.41 13.742-13.407 18.713-25.549 24.324-5.974 7.645-2.769 20.41 8.439 21.144 7.872.515 65.9.656 74.031-.242 12.478-1.377 14.426-14.423 8.668-21.629-12.23-3.79-25.427-9.14-28.101-23.295 6.492-5.443-6.752-11.199-6.752-19.815 0-12.233 32.168-19.358 1.357-27.362 5.98-3.76 15.513-15.77 15.687-22.837.342-13.873-14.086-26.774-28.87-26.608z" fill="url(#l)" fill-rule="evenodd" stroke="url(#m)" stroke-width="4.991" stroke-linecap="round" stroke-linejoin="round"/><path d="M1066.707 173.786h68.57" opacity=".5" fill="none" stroke="url(#n)" stroke-width="4.991" stroke-linecap="round" stroke-linejoin="round"/><path d="M1088.01 140.898h24.032" opacity=".5" fill="none" stroke="url(#o)" stroke-width="4.991" stroke-linecap="round" stroke-linejoin="round"/><path d="M1089.876 106.21h20.301" opacity=".5" fill="none" stroke="url(#p)" stroke-width="4.991" stroke-linecap="round" stroke-linejoin="round"/><path d="M1130.993 191.421c12.478-1.377 14.426-12.427 8.668-19.633-12.23-3.789-25.427-11.136-28.1-25.291 6.49-5.444-6.753-11.2-6.753-19.815 0-12.234 32.168-19.358 1.357-27.362 5.98-3.76 15.514-15.77 15.687-22.837.342-13.874-12.09-24.778-26.874-24.612" opacity=".5" fill="none" stroke="url(#q)" stroke-width="4.991" stroke-linecap="round" stroke-linejoin="round"/></g><g><path fill="none" d="M400 0h200v200H400z"/><path d="M567.28 30.069l-27.043.124v17.218l-24.454 1.996V32.283l-27.948.156v17.467l-23.456-2.495V30.037l-25.109.624c-2.458 21.168 10.415 26.03 1.59 41.048l21.658 11.424c1.04 22.881 6.072 52.85 4.117 67.396-7.634 5.814 6.82 11.32-11.8 15.13-2.232.456-19.263 1.974-20.181 3.15-6.874 8.796-3.196 23.485 9.7 24.329 9.06.593 107.144.752 116.5-.28 14.358-1.585 16.576-16.57 9.95-24.86-1.014-1.27-16.78-2.636-20.523-3.276-16.647-2.843-4.017-9.327-11.499-13.254-2.4-15.883 1.874-44.958 4.387-68.736l22.146-10.867c-6.833-16.428 4.258-18.897 1.965-41.796z" fill="url(#r)" stroke="url(#s)" stroke-width="4.991" stroke-linecap="round" stroke-linejoin="round"/><path d="M456.688 172.142h91.856" opacity=".5" fill="none" stroke="url(#t)" stroke-width="4.991" stroke-linecap="round" stroke-linejoin="round"/><path d="M473.96 153.702h51.93" opacity=".5" fill="none" stroke="url(#u)" stroke-width="4.991" stroke-linecap="round" stroke-linejoin="round"/><path d="M473.96 82.75H519.9" opacity=".5" fill="none" stroke="url(#v)" stroke-width="4.991" stroke-linecap="round" stroke-linejoin="round"/><path d="M452.433 65.58l83.349.352" opacity=".5" fill="none" stroke="url(#w)" stroke-width="4.991" stroke-linecap="round" stroke-linejoin="round"/><path d="M554.866 192.857c14.358-1.584 16.575-12.576 9.95-20.867-1.015-1.27-16.78-2.636-20.524-3.275-16.647-2.843-4.017-13.32-11.499-17.247-2.4-15.883 1.875-48.95 4.387-72.729l22.146-10.866c-6.01-12.602 4.39-20.212 1.965-37.804" opacity=".5" fill="none" stroke="url(#x)" stroke-width="4.991" stroke-linecap="round" stroke-linejoin="round"/></g><g><path fill="none" d="M200 0h200v200H200z"/><path d="M328.384 19.219c-6.233 0-11.291 4.59-11.291 10.25 0 3.668 2.142 6.875 5.334 8.687-9.102 22.477-17.723 43.149-24.954 66.032-6.983-20.582-13.615-42.27-22.052-65.125 3.396-1.769 5.677-5.068 5.677-8.875 0-5.66-5.058-10.282-11.291-10.282-6.234 0-11.292 4.622-11.292 10.282 0 4.971 3.903 9.096 9.077 10.031.007 23.981 4.906 36.608-3.68 70.22-13.006-24.932-20.582-35.573-36.588-59.001 1.757-1.808 2.838-4.182 2.838-6.781 0-5.66-5.058-10.25-11.291-10.25-6.234 0-11.291 4.59-11.291 10.25s5.057 10.25 11.29 10.25h.063c10.702 27.262 15.248 40.405 24.534 65.597 2.95 8.003 9.706 8.282 13.43 17.428 1.625 3.99 2.405 19.785-6.055 25.038-1.282.796-17.266 3.979-18.184 5.156-6.874 8.814-3.197 23.53 9.7 24.375 9.059.594 103.15.754 112.508-.281 14.358-1.588 16.575-16.6 9.95-24.906-1.015-1.273-15.347-2.929-18.528-5.282-5.808-4.297-8.66-18.752-7.3-24.194 2.068-8.265 9.773-7.61 11.857-14.519 9.086-30.119 16.67-41.465 29.66-68.475.31.023.62.063.936.063 6.234 0 11.291-4.59 11.291-10.25s-5.057-10.25-11.29-10.25c-6.234 0-11.292 4.59-11.292 10.25 0 2.645 1.118 5.055 2.932 6.875-21.028 25.28-27.727 34.563-43.045 59.844-5.488-26.834-.074-46.297 1.28-72.032 4.814-1.173 8.359-5.135 8.359-9.875 0-5.66-5.058-10.25-11.292-10.25z" fill="url(#y)" stroke="url(#z)" stroke-width="4.995" stroke-linecap="round" stroke-linejoin="round"/><path d="M251.637 175.588h91.856" opacity=".5" fill="none" stroke="url(#A)" stroke-width="4.995" stroke-linecap="round" stroke-linejoin="round"/><path d="M263.615 159.588h51.93" opacity=".5" fill="none" stroke="url(#B)" stroke-width="4.995" stroke-linecap="round" stroke-linejoin="round"/><path d="M260.913 129.774h67.9" opacity=".5" fill="none" stroke="url(#C)" stroke-width="4.995" stroke-linecap="round" stroke-linejoin="round"/><path d="M324.049 111.376c-5.49-26.834-.075-46.297 1.279-72.032 4.814-1.173 8.359-5.135 8.359-9.875 0-5.66-5.058-8.25-11.291-8.25m26.481 171.001c14.358-1.588 16.576-14.6 9.95-22.906-1.015-1.273-15.347-2.929-18.528-5.282-5.808-4.297-8.66-22.752-7.299-28.194 2.068-8.265 9.772-7.61 11.857-14.519 9.086-30.119 16.669-39.465 29.66-66.475.31.023.62.063.935.063 6.234 0 11.292-4.59 11.292-10.25s-5.058-8.25-11.292-8.25" opacity=".5" fill="none" stroke="url(#D)" stroke-width="4.995" stroke-linecap="round" stroke-linejoin="round"/></g><g><path fill="none" d="M800 0h200v200H800z"/><path d="M892.41 10.613l-5.071 17.981-12.91-14.753s-.459 10.505-.922 19.306c-19.798 19.996-8.328 24.34-37.566 69.066-1.9 2.906-5.468 5.338-6.233 9.217-3.44 17.447 19.12 13.03 23.125 15.023 15.441-12.453 21.796-12.59 29.895-21.478 9.203 3.408 23.456-.56 32.043-9.682-5.581 16.852-29.644 28.816-36.806 58.136 8.38 8.249.013 16.188-10.438 15.627-11.22 2.609-7.357 23.75 4.258 23.692l98.585-.484c13.771-.068 15.714-20.18 6.59-23.646-8.657-.023-12.725-9.067-5.588-15.086.804-16.158.644-31.322-2.78-46.656-.352-1.576.509-4.9 2.331-5.234-1.378-5.145-6.641-9.824-8.89-15.077-1.08-2.526-3.914-3.728 4.303-4.065-2.486-4.654-13.289-12.575-16.703-16.906-1.172-1.487 5.518-2.864 4.19-4.273-7.539-8.006-18.491-10.847-23.76-14.822-1.797-1.356 5.029-3.154 3.073-4.443-7.203-4.749-22.21-10.555-31.764-14.269l-8.962-17.174z" fill="url(#E)" fill-rule="evenodd" stroke="url(#F)" stroke-width="4.991" stroke-linecap="round" stroke-linejoin="round"/><path d="M879.936 62.459c-6.228.43-10.997 3.498-14.2 8.89" fill="none" stroke="url(#G)" stroke-width="4.991" stroke-linecap="round" stroke-linejoin="round"/><path d="M874.093 70.023c2.695 1.627 5.436 1.02 4.933-2.793" fill="none" stroke="url(#H)" stroke-width="4.991" stroke-linecap="round" stroke-linejoin="round"/><path d="M840.337 110.22c-2.926-1.01-5.042 3.704-3.176 3.896" fill="none" stroke="url(#I)" stroke-width="4.991" stroke-linecap="round" stroke-linejoin="round"/><path d="M917.458 89.301c2.039-2.763 1.83-4.117 2.323-5.746" fill="none" stroke="url(#J)" stroke-width="4.991" stroke-linecap="round" stroke-linejoin="round"/><path d="M885.184 167.415l75.809-.007" opacity=".5" fill="none" stroke="url(#K)" stroke-width="4.991" stroke-linecap="round" stroke-linejoin="round"/><path d="M887.18 153.44l59.84-.006" opacity=".5" fill="none" stroke="url(#L)" stroke-width="4.991" stroke-linecap="round" stroke-linejoin="round"/><path d="M964.381 192.264c13.772-.068 15.714-16.187 6.59-19.653-8.657-.024-12.725-13.06-5.588-19.08.804-16.157.644-31.321-2.78-46.655-.352-1.576.51-4.9 2.332-5.234-1.379-5.145-6.642-7.828-8.89-13.081-1.08-2.526-3.915-3.728 4.302-4.065-2.486-4.653-13.288-12.575-16.703-16.906-1.172-1.487 5.518-2.864 4.19-4.273-7.539-8.006-18.491-10.846-23.76-14.822-1.797-1.356 5.029-3.154 3.073-4.443-7.203-4.749-16.22-12.55-25.775-16.265" opacity=".5" fill="none" stroke="url(#M)" stroke-width="4.991" stroke-linecap="round" stroke-linejoin="round"/></g><g><path fill="none" d="M0 0h200v200H0z"/><path d="M90.799 12.688c-4.381 3.961 1.906 7.228 0 13.53l-17.53-.03v16.5l17.53.031-8.923 8.146-1.405 3.193 8.28 8.517 1.42 9.453-10.779-.66C39.611 54.554 7.308 42.114 37.118 96.844c2.797 5.135 16.072 16.246 8.36 23.657 2.95 8.002 9.687 6.292 13.412 15.437 1.624 3.99 2.409 19.78-6.052 25.032-1.281.796-17.266 3.979-18.184 5.156-6.874 8.814-3.196 23.53 9.7 24.375 9.06.594 103.151.754 112.508-.281 14.358-1.588 16.576-16.6 9.95-24.906-1.015-1.273-15.347-2.929-18.528-5.282-5.808-4.297-8.66-18.745-7.298-24.187 2.067-8.266 9.768-7.623 11.852-14.532-12.174-8.618 6.54-17.798 9.545-23.469 28.64-54.044.551-43.257-40.376-26.181l-11.995.681 1.552-9.585 8.208-8.419-1.556-2.996-8.983-8.625 17.53.031V26.281l-17.53-.03c-3.151-6.01 4.74-8.449 0-13.563H90.799z" fill="url(#N)" stroke="url(#O)" stroke-width="4.995" stroke-linecap="round" stroke-linejoin="round"/><path d="M53.815 171.588h91.856" opacity=".5" fill="none" stroke="url(#P)" stroke-width="4.995" stroke-linecap="round" stroke-linejoin="round"/><path d="M65.792 157.588h51.931" opacity=".5" fill="none" stroke="url(#Q)" stroke-width="4.995" stroke-linecap="round" stroke-linejoin="round"/><path d="M54.485 121.606c32.537 3.634 59.006 3.222 81.875 0" opacity=".5" fill="none" stroke="url(#R)" stroke-width="4.995" stroke-linecap="round" stroke-linejoin="round"/><path d="M89.152 53.292h14.002" opacity=".5" fill="none" stroke="url(#S)" stroke-width="4.995" stroke-linecap="round" stroke-linejoin="round"/><path d="M150.873 190.22c14.358-1.588 16.576-14.6 9.95-22.906-1.014-1.273-13.35-1.929-16.531-4.282-5.809-4.297-10.657-21.745-9.295-27.187 2.067-8.266 9.768-7.623 11.853-14.532-10.178-9.618 6.54-15.798 9.544-21.469 28.64-54.044 8.95-38.782-36.383-22.681l-14.99-.819.555-13.585 8.207-8.419-1.556-2.996-8.983-12.625 17.53.031v-8.469l-17.53-.03c-3.151-6.01 4.74-12.449 0-17.563" opacity=".5" fill="none" stroke="url(#T)" stroke-width="4.995" stroke-linecap="round" stroke-linejoin="round"/><path d="M30.762 64.792c1.183-9.067 33.88 5.931 48.936 9.5" opacity=".5" fill="none" stroke="url(#U)" stroke-width="4.995" stroke-linecap="round" stroke-linejoin="round"/><path d="M44.211 101.171c12.388 15.225 105.764 12.65 118.848-20.198" opacity=".5" fill="none" stroke="url(#V)" stroke-width="4.995" stroke-linecap="round" stroke-linejoin="round"/></g><g><path d="M699.917 214.275c-7.372 0-13.355 4.986-13.355 11.13 0 1.777.5 3.447 1.39 4.938-15.248 4.282-26.257 16.912-26.257 35.161.605 16.636 9.022 32.054 22.536 41.63-13.488 5.292-.66 11.2-.66 25.306-9.807 17.69-13.183 19.37-29.875 31.787-1.3.92-11.322 1.988-12.242 3.165-6.887 8.814-3.183 23.534 9.738 24.38 9.076.594 89.327.756 98.701-.278 14.385-1.588 16.62-16.63 9.982-24.937-1.017-1.272-11.134-2.385-12.555-3.269-13.13-7.17-29.77-17.668-34.292-30.848 0-14.104 15.05-20.013 1.565-25.306 13.941-9.614 21.973-23.602 23.545-41.63.86-9.853-4.585-19.718-13.007-26.745l-13.772 31.197c-1.405 3.186-5.091 4.639-8.278 3.234-3.186-1.404-4.639-5.125-3.234-8.312l14.468-32.796a42.245 42.245 0 0 0-2.852-1.113c1.145-1.641 1.809-3.53 1.809-5.565 0-6.143-5.983-11.129-13.355-11.129z" fill="url(#W)" stroke="url(#X)" stroke-width="5" stroke-linecap="round" stroke-linejoin="round"/><path d="M662.479 372.847h76.028" opacity=".5" fill="none" stroke="url(#Y)" stroke-width="5" stroke-linecap="round" stroke-linejoin="round"/><path d="M683.886 355.72h31.073" opacity=".5" fill="none" stroke="url(#Z)" stroke-width="5" stroke-linecap="round" stroke-linejoin="round"/><path d="M688.168 312.765h22.51" opacity=".5" fill="none" stroke="url(#aa)" stroke-width="5" stroke-linecap="round" stroke-linejoin="round"/><path d="M674.694 291.373c8.595 10.397 50.644 7.606 61.478-27.577" opacity=".5" fill="none" stroke="url(#ab)" stroke-width="5" stroke-linecap="round" stroke-linejoin="round"/><path d="M744.236 388.665c14.385-1.587 16.62-10.63 9.982-18.936-1.017-1.272-11.133-2.385-12.555-3.27-13.13-7.17-29.77-19.668-34.292-32.848 0-14.103 15.05-24.012 1.565-29.305 13.941-9.614 21.973-23.602 23.545-41.63.86-9.854-1.05-11.233-9.471-18.26" opacity=".5" fill="none" stroke="url(#ac)" stroke-width="5" stroke-linecap="round" stroke-linejoin="round"/><path fill="none" d="M600 200h200v200H600z"/><g><path fill="none" d="M1000 200h200v200h-200z"/><path d="M1100.04 249.17c-15.463.174-27.816 12.392-28.84 26.607-.508 7.05 9.707 19.077 15.687 22.837-29.448 6.638-.573 15.127-.573 27.362 0 8.454-11.456 14.087-5.184 19.513-3.41 13.742-13.407 18.713-25.549 24.324-5.974 7.645-2.769 20.41 8.439 21.144 7.872.515 65.9.656 74.031-.242 12.478-1.377 14.426-14.423 8.668-21.629-12.23-3.79-25.427-9.14-28.101-23.295 6.492-5.443-6.752-11.199-6.752-19.815 0-12.233 32.168-19.358 1.357-27.362 5.98-3.76 15.513-15.77 15.687-22.837.342-13.873-14.086-26.774-28.87-26.608z" fill="url(#ad)" fill-rule="evenodd" stroke="url(#ae)" stroke-width="4.991" stroke-linecap="round" stroke-linejoin="round"/><path d="M1066.707 373.786h68.57" opacity=".5" fill="none" stroke="url(#af)" stroke-width="4.991" stroke-linecap="round" stroke-linejoin="round"/><path d="M1088.01 340.898h24.032" opacity=".5" fill="none" stroke="url(#ag)" stroke-width="4.991" stroke-linecap="round" stroke-linejoin="round"/><path d="M1089.876 306.21h20.301" opacity=".5" fill="none" stroke="url(#ah)" stroke-width="4.991" stroke-linecap="round" stroke-linejoin="round"/><path d="M1130.993 391.421c12.478-1.377 14.426-12.427 8.668-19.633-12.23-3.789-25.427-11.136-28.1-25.291 6.49-5.444-6.753-11.2-6.753-19.815 0-12.234 32.168-19.358 1.357-27.362 5.98-3.76 15.514-15.77 15.687-22.837.342-13.874-12.09-24.778-26.874-24.612" opacity=".5" fill="none" stroke="url(#ai)" stroke-width="4.991" stroke-linecap="round" stroke-linejoin="round"/></g><g><path fill="none" d="M400 200h200v200H400z"/><path d="M567.28 230.069l-27.043.124v17.218l-24.454 1.996v-17.124l-27.948.156v17.467l-23.456-2.495v-17.374l-25.109.624c-2.458 21.168 10.415 26.03 1.59 41.048l21.658 11.424c1.04 22.881 6.072 52.85 4.117 67.396-7.634 5.814 6.82 11.32-11.8 15.13-2.232.456-19.263 1.974-20.181 3.15-6.874 8.796-3.196 23.485 9.7 24.329 9.06.593 107.144.752 116.5-.28 14.358-1.585 16.576-16.57 9.95-24.86-1.014-1.27-16.78-2.636-20.523-3.276-16.647-2.843-4.017-9.327-11.499-13.254-2.4-15.883 1.874-44.958 4.387-68.736l22.146-10.867c-6.833-16.428 4.258-18.897 1.965-41.796z" fill="url(#aj)" stroke="url(#ak)" stroke-width="4.991" stroke-linecap="round" stroke-linejoin="round"/><path d="M456.688 372.142h91.856" opacity=".5" fill="none" stroke="url(#al)" stroke-width="4.991" stroke-linecap="round" stroke-linejoin="round"/><path d="M473.96 353.702h51.93" opacity=".5" fill="none" stroke="url(#am)" stroke-width="4.991" stroke-linecap="round" stroke-linejoin="round"/><path d="M473.96 282.75H519.9" opacity=".5" fill="none" stroke="url(#an)" stroke-width="4.991" stroke-linecap="round" stroke-linejoin="round"/><path d="M452.433 265.58l83.349.352" opacity=".5" fill="none" stroke="url(#ao)" stroke-width="4.991" stroke-linecap="round" stroke-linejoin="round"/><path d="M554.866 392.857c14.358-1.584 16.575-12.576 9.95-20.867-1.015-1.27-16.78-2.636-20.524-3.275-16.647-2.843-4.017-13.32-11.499-17.247-2.4-15.883 1.875-48.95 4.387-72.729l22.146-10.866c-6.01-12.602 4.39-20.212 1.965-37.804" opacity=".5" fill="none" stroke="url(#ap)" stroke-width="4.991" stroke-linecap="round" stroke-linejoin="round"/></g><g><path fill="none" d="M200 200h200v200H200z"/><path d="M328.384 219.219c-6.233 0-11.291 4.59-11.291 10.25 0 3.668 2.142 6.875 5.334 8.687-9.102 22.477-17.723 43.149-24.954 66.032-6.983-20.582-13.615-42.27-22.052-65.125 3.396-1.769 5.677-5.068 5.677-8.875 0-5.66-5.058-10.282-11.291-10.282-6.234 0-11.292 4.622-11.292 10.282 0 4.971 3.903 9.096 9.077 10.031.007 23.981 4.906 36.608-3.68 70.22-13.006-24.932-20.582-35.573-36.588-59.001 1.757-1.808 2.838-4.182 2.838-6.781 0-5.66-5.058-10.25-11.291-10.25-6.234 0-11.291 4.59-11.291 10.25s5.057 10.25 11.29 10.25h.063c10.702 27.262 15.248 40.405 24.534 65.597 2.95 8.003 9.706 8.282 13.43 17.428 1.625 3.99 2.405 19.785-6.055 25.038-1.282.796-17.266 3.979-18.184 5.156-6.874 8.814-3.197 23.53 9.7 24.375 9.059.594 103.15.754 112.508-.281 14.358-1.588 16.575-16.6 9.95-24.906-1.015-1.273-15.347-2.929-18.528-5.282-5.808-4.297-8.66-18.752-7.3-24.194 2.068-8.265 9.773-7.61 11.857-14.519 9.086-30.119 16.67-41.465 29.66-68.475.31.023.62.063.936.063 6.234 0 11.291-4.59 11.291-10.25s-5.057-10.25-11.29-10.25c-6.234 0-11.292 4.59-11.292 10.25 0 2.645 1.118 5.055 2.932 6.875-21.028 25.28-27.727 34.563-43.045 59.844-5.488-26.834-.074-46.297 1.28-72.032 4.814-1.173 8.359-5.135 8.359-9.875 0-5.66-5.058-10.25-11.292-10.25z" fill="url(#aq)" stroke="url(#ar)" stroke-width="4.995" stroke-linecap="round" stroke-linejoin="round"/><path d="M251.637 375.588h91.856" opacity=".5" fill="none" stroke="url(#as)" stroke-width="4.995" stroke-linecap="round" stroke-linejoin="round"/><path d="M263.615 359.588h51.93" opacity=".5" fill="none" stroke="url(#at)" stroke-width="4.995" stroke-linecap="round" stroke-linejoin="round"/><path d="M260.913 329.774h67.9" opacity=".5" fill="none" stroke="url(#au)" stroke-width="4.995" stroke-linecap="round" stroke-linejoin="round"/><path d="M324.049 311.376c-5.49-26.834-.075-46.297 1.279-72.032 4.814-1.173 8.359-5.135 8.359-9.875 0-5.66-5.058-8.25-11.291-8.25m26.481 171.001c14.358-1.588 16.576-14.6 9.95-22.906-1.015-1.273-15.347-2.929-18.528-5.282-5.808-4.297-8.66-22.752-7.299-28.194 2.068-8.265 9.772-7.61 11.857-14.519 9.086-30.119 16.669-39.465 29.66-66.475.31.023.62.063.935.063 6.234 0 11.292-4.59 11.292-10.25s-5.058-8.25-11.292-8.25" opacity=".5" fill="none" stroke="url(#av)" stroke-width="4.995" stroke-linecap="round" stroke-linejoin="round"/></g><g><path fill="none" d="M800 200h200v200H800z"/><path d="M892.41 210.613l-5.071 17.981-12.91-14.753s-.459 10.505-.922 19.306c-19.798 19.996-8.328 24.34-37.566 69.066-1.9 2.906-5.468 5.338-6.233 9.217-3.44 17.447 19.12 13.03 23.125 15.023 15.441-12.453 21.796-12.59 29.895-21.478 9.203 3.408 23.456-.56 32.043-9.682-5.581 16.852-29.644 28.816-36.806 58.136 8.38 8.249.013 16.188-10.438 15.627-11.22 2.609-7.357 23.75 4.258 23.692l98.585-.484c13.771-.068 15.714-20.18 6.59-23.646-8.657-.023-12.725-9.067-5.588-15.086.804-16.158.644-31.322-2.78-46.656-.352-1.576.509-4.9 2.331-5.234-1.378-5.145-6.641-9.824-8.89-15.077-1.08-2.526-3.914-3.728 4.303-4.065-2.486-4.654-13.289-12.575-16.703-16.906-1.172-1.487 5.518-2.864 4.19-4.273-7.539-8.006-18.491-10.847-23.76-14.822-1.797-1.356 5.029-3.154 3.073-4.443-7.203-4.749-22.21-10.555-31.764-14.269l-8.962-17.174z" fill="url(#aw)" fill-rule="evenodd" stroke="url(#ax)" stroke-width="4.991" stroke-linecap="round" stroke-linejoin="round"/><path d="M879.936 262.459c-6.228.43-10.997 3.498-14.2 8.89" fill="none" stroke="url(#ay)" stroke-width="4.991" stroke-linecap="round" stroke-linejoin="round"/><path d="M874.093 270.023c2.695 1.627 5.436 1.02 4.933-2.793" fill="none" stroke="url(#az)" stroke-width="4.991" stroke-linecap="round" stroke-linejoin="round"/><path d="M840.337 310.22c-2.926-1.01-5.042 3.704-3.176 3.896" fill="none" stroke="url(#aA)" stroke-width="4.991" stroke-linecap="round" stroke-linejoin="round"/><path d="M917.458 289.301c2.039-2.763 1.83-4.117 2.323-5.746" fill="none" stroke="url(#aB)" stroke-width="4.991" stroke-linecap="round" stroke-linejoin="round"/><path d="M885.184 367.415l75.809-.007" opacity=".5" fill="none" stroke="url(#aC)" stroke-width="4.991" stroke-linecap="round" stroke-linejoin="round"/><path d="M887.18 353.44l59.84-.006" opacity=".5" fill="none" stroke="url(#aD)" stroke-width="4.991" stroke-linecap="round" stroke-linejoin="round"/><path d="M964.381 392.264c13.772-.068 15.714-16.187 6.59-19.653-8.657-.024-12.725-13.06-5.588-19.08.804-16.157.644-31.321-2.78-46.655-.352-1.576.51-4.9 2.332-5.234-1.379-5.145-6.642-7.828-8.89-13.081-1.08-2.526-3.915-3.728 4.302-4.065-2.486-4.653-13.288-12.575-16.703-16.906-1.172-1.487 5.518-2.864 4.19-4.273-7.539-8.006-18.491-10.846-23.76-14.822-1.797-1.356 5.029-3.154 3.073-4.443-7.203-4.749-16.22-12.55-25.775-16.265" opacity=".5" fill="none" stroke="url(#aE)" stroke-width="4.991" stroke-linecap="round" stroke-linejoin="round"/></g><g><path fill="none" d="M0 200h200v200H0z"/><path d="M90.799 212.688c-4.381 3.961 1.906 7.228 0 13.53l-17.53-.03v16.5l17.53.031-8.923 8.146-1.405 3.193 8.28 8.517 1.42 9.453-10.779-.66c-39.781-16.814-72.084-29.254-42.274 25.476 2.797 5.135 16.072 16.246 8.36 23.657 2.95 8.002 9.687 6.292 13.412 15.437 1.624 3.99 2.409 19.78-6.052 25.032-1.281.796-17.266 3.979-18.184 5.156-6.874 8.814-3.196 23.53 9.7 24.375 9.06.594 103.151.754 112.508-.281 14.358-1.588 16.576-16.6 9.95-24.906-1.015-1.273-15.347-2.929-18.528-5.282-5.808-4.297-8.66-18.745-7.298-24.187 2.067-8.266 9.768-7.623 11.852-14.532-12.174-8.618 6.54-17.798 9.545-23.469 28.64-54.044.551-43.257-40.376-26.181l-11.995.681 1.552-9.585 8.208-8.419-1.556-2.996-8.983-8.625 17.53.031v-16.469l-17.53-.03c-3.151-6.01 4.74-8.449 0-13.563H90.799z" fill="url(#aF)" stroke="url(#aG)" stroke-width="4.995" stroke-linecap="round" stroke-linejoin="round"/><path d="M53.815 371.588h91.856" opacity=".5" fill="none" stroke="url(#aH)" stroke-width="4.995" stroke-linecap="round" stroke-linejoin="round"/><path d="M65.792 357.587h51.931" opacity=".5" fill="none" stroke="url(#aI)" stroke-width="4.995" stroke-linecap="round" stroke-linejoin="round"/><path d="M54.485 321.606c32.537 3.634 59.006 3.222 81.875 0" opacity=".5" fill="none" stroke="url(#aJ)" stroke-width="4.995" stroke-linecap="round" stroke-linejoin="round"/><path d="M89.152 253.292h14.002" opacity=".5" fill="none" stroke="url(#aK)" stroke-width="4.995" stroke-linecap="round" stroke-linejoin="round"/><path d="M150.873 390.22c14.358-1.588 16.576-14.6 9.95-22.906-1.014-1.273-13.35-1.929-16.531-4.282-5.809-4.297-10.657-21.745-9.295-27.187 2.067-8.266 9.768-7.623 11.853-14.532-10.178-9.618 6.54-15.798 9.544-21.469 28.64-54.044 8.95-38.782-36.383-22.681l-14.99-.819.555-13.585 8.207-8.419-1.556-2.996-8.983-12.625 17.53.031v-8.469l-17.53-.03c-3.151-6.01 4.74-12.449 0-17.563" opacity=".5" fill="none" stroke="url(#aL)" stroke-width="4.995" stroke-linecap="round" stroke-linejoin="round"/><path d="M30.762 264.792c1.183-9.067 33.88 5.931 48.936 9.5" opacity=".5" fill="none" stroke="url(#aM)" stroke-width="4.995" stroke-linecap="round" stroke-linejoin="round"/><path d="M44.211 301.171c12.388 15.225 105.764 12.65 118.848-20.198" opacity=".5" fill="none" stroke="url(#aN)" stroke-width="4.995" stroke-linecap="round" stroke-linejoin="round"/></g></g></svg>