<svg xmlns="http://www.w3.org/2000/svg" xmlns:xlink="http://www.w3.org/1999/xlink" width="1200" height="400" version="1"><defs><linearGradient id="d"><stop offset="0"/><stop offset="1"/></linearGradient><linearGradient id="c"><stop offset="0" stop-color="#ede3de"/><stop offset="1" stop-color="#d0b090"/></linearGradient><linearGradient id="b"><stop offset="0" stop-color="gray"/><stop offset="1" stop-color="gray"/></linearGradient><linearGradient id="a"><stop offset="0"/><stop offset="1" stop-color="#505070"/></linearGradient><linearGradient xlink:href="#a" id="i" gradientUnits="userSpaceOnUse" x1="163.113" y1="776.638" x2="702.697" y2="778.811" gradientTransform="scale(.22857)"/><linearGradient xlink:href="#a" id="g" gradientUnits="userSpaceOnUse" x1="150.079" y1="255.254" x2="694.007" y2="740.063" gradientTransform="scale(.22857)"/><linearGradient xlink:href="#a" id="e" x1="375.068" y1="176.416" x2="535.576" y2="308.934" gradientUnits="userSpaceOnUse" gradientTransform="scale(.22857)"/><linearGradient xlink:href="#a" id="o" x1="199" y1="789.833" x2="661.667" y2="789.833" gradientUnits="userSpaceOnUse" gradientTransform="translate(200) scale(.22857)"/><linearGradient xlink:href="#a" id="m" x1="166.781" y1="239.891" x2="718.885" y2="746.557" gradientUnits="userSpaceOnUse" gradientTransform="translate(200) scale(.22857)"/><linearGradient xlink:href="#a" id="k" x1="285.639" y1="287.12" x2="466.667" y2="587.12" gradientUnits="userSpaceOnUse" gradientTransform="translate(200) scale(.22857)"/><linearGradient xlink:href="#a" id="A" gradientUnits="userSpaceOnUse" x1="88.716" y1="286.248" x2="772.142" y2="750.581" gradientTransform="translate(400) scale(.22857)"/><linearGradient xlink:href="#a" id="y" gradientUnits="userSpaceOnUse" x1="88.716" y1="286.248" x2="772.142" y2="750.581" gradientTransform="translate(400) scale(.22857)"/><linearGradient xlink:href="#a" id="w" gradientUnits="userSpaceOnUse" x1="88.716" y1="286.248" x2="772.142" y2="750.581" gradientTransform="translate(400) scale(.22857)"/><linearGradient xlink:href="#a" id="u" gradientUnits="userSpaceOnUse" x1="88.716" y1="286.248" x2="772.142" y2="750.581" gradientTransform="translate(400) scale(.22857)"/><linearGradient xlink:href="#a" id="s" gradientUnits="userSpaceOnUse" x1="88.716" y1="286.248" x2="772.142" y2="750.581" gradientTransform="translate(400) scale(.22857)"/><linearGradient xlink:href="#a" id="q" gradientUnits="userSpaceOnUse" x1="88.716" y1="286.248" x2="772.142" y2="750.581" gradientTransform="translate(400) scale(.22857)"/><linearGradient xlink:href="#a" id="K" gradientUnits="userSpaceOnUse" x1="322.65" y1="156.502" x2="501.102" y2="209.835" gradientTransform="translate(600 3.581) scale(.22857)"/><linearGradient xlink:href="#a" id="I" gradientUnits="userSpaceOnUse" x1="130.983" y1="444.835" x2="720.017" y2="623.168" gradientTransform="translate(600 .914) scale(.22857)"/><linearGradient xlink:href="#a" id="G" gradientUnits="userSpaceOnUse" x1="130.983" y1="444.835" x2="720.017" y2="623.168" gradientTransform="translate(600 .914) scale(.22857)"/><linearGradient xlink:href="#a" id="E" gradientUnits="userSpaceOnUse" x1="130.983" y1="444.835" x2="720.017" y2="623.168" gradientTransform="translate(598.171 .914) scale(.22857)"/><linearGradient xlink:href="#a" id="C" gradientUnits="userSpaceOnUse" x1="130.983" y1="444.835" x2="720.017" y2="623.168" gradientTransform="translate(602.286 .914) scale(.22857)"/><linearGradient xlink:href="#a" id="M" x1="163.677" y1="244.156" x2="741.164" y2="814.156" gradientUnits="userSpaceOnUse" gradientTransform="translate(800.457 2.743) scale(.22857)"/><linearGradient xlink:href="#a" id="O" x1="250.333" y1="541.667" x2="671.333" y2="718.333" gradientUnits="userSpaceOnUse"/><linearGradient xlink:href="#b" id="P" x1="265.333" y1="605" x2="644.667" y2="605" gradientUnits="userSpaceOnUse"/><linearGradient xlink:href="#b" id="N" x1="827.927" y1="104.443" x2="974.56" y2="104.443" gradientUnits="userSpaceOnUse"/><linearGradient xlink:href="#b" id="L" x1="681.691" y1="32.301" x2="717.966" y2="32.301" gradientUnits="userSpaceOnUse"/><linearGradient xlink:href="#b" id="J" x1="644.227" y1="93.364" x2="754.015" y2="93.364" gradientUnits="userSpaceOnUse"/><linearGradient xlink:href="#b" id="H" x1="656.233" y1="150.817" x2="737.672" y2="150.817" gradientUnits="userSpaceOnUse"/><linearGradient xlink:href="#b" id="F" x1="699.297" y1="174.586" x2="766.556" y2="174.586" gradientUnits="userSpaceOnUse"/><linearGradient xlink:href="#b" id="D" x1="632.225" y1="174.586" x2="699.485" y2="174.586" gradientUnits="userSpaceOnUse"/><linearGradient xlink:href="#b" id="B" x1="539.124" y1="171.962" x2="564.876" y2="171.962" gradientUnits="userSpaceOnUse"/><linearGradient xlink:href="#b" id="z" x1="435.505" y1="178.819" x2="530.971" y2="178.819" gradientUnits="userSpaceOnUse"/><linearGradient xlink:href="#b" id="x" x1="540.648" y1="59.124" x2="573.257" y2="59.124" gradientUnits="userSpaceOnUse"/><linearGradient xlink:href="#b" id="v" x1="481.219" y1="55.886" x2="518.019" y2="55.886" gradientUnits="userSpaceOnUse"/><linearGradient xlink:href="#b" id="t" x1="426.743" y1="58.552" x2="466.21" y2="58.552" gradientUnits="userSpaceOnUse"/><linearGradient xlink:href="#b" id="r" x1="452.267" y1="125.41" x2="550.4" y2="125.41" gradientUnits="userSpaceOnUse"/><linearGradient xlink:href="#b" id="p" x1="245.486" y1="180.533" x2="351.238" y2="180.533" gradientUnits="userSpaceOnUse"/><linearGradient xlink:href="#b" id="n" x1="218.312" y1="95.213" x2="382.983" y2="95.213" gradientUnits="userSpaceOnUse"/><linearGradient xlink:href="#b" id="l" x1="252.337" y1="96.104" x2="353.143" y2="96.104" gradientUnits="userSpaceOnUse"/><linearGradient xlink:href="#b" id="j" x1="43.505" y1="180.952" x2="156.876" y2="180.952" gradientUnits="userSpaceOnUse"/><linearGradient xlink:href="#b" id="h" x1="19.407" y1="119.723" x2="182.465" y2="119.723" gradientUnits="userSpaceOnUse"/><linearGradient xlink:href="#b" id="f" x1="72.323" y1="53.731" x2="129.866" y2="53.731" gradientUnits="userSpaceOnUse"/><linearGradient xlink:href="#c" id="Q" gradientUnits="userSpaceOnUse" gradientTransform="translate(0 200) scale(.22857)" x1="375.068" y1="176.416" x2="535.576" y2="308.934"/><linearGradient xlink:href="#d" id="R" gradientUnits="userSpaceOnUse" x1="72.323" y1="53.731" x2="129.866" y2="53.731" gradientTransform="translate(0 200)"/><linearGradient xlink:href="#c" id="S" gradientUnits="userSpaceOnUse" gradientTransform="translate(0 200) scale(.22857)" x1="150.079" y1="255.254" x2="694.007" y2="740.063"/><linearGradient xlink:href="#d" id="T" gradientUnits="userSpaceOnUse" x1="19.407" y1="119.723" x2="182.465" y2="119.723" gradientTransform="translate(0 200)"/><linearGradient xlink:href="#c" id="U" gradientUnits="userSpaceOnUse" gradientTransform="translate(0 200) scale(.22857)" x1="163.113" y1="776.638" x2="702.697" y2="778.811"/><linearGradient xlink:href="#d" id="V" gradientUnits="userSpaceOnUse" x1="43.505" y1="180.952" x2="156.876" y2="180.952" gradientTransform="translate(0 200)"/><linearGradient xlink:href="#c" id="W" gradientUnits="userSpaceOnUse" gradientTransform="translate(200 200) scale(.22857)" x1="285.639" y1="287.12" x2="466.667" y2="587.12"/><linearGradient xlink:href="#d" id="X" gradientUnits="userSpaceOnUse" x1="252.337" y1="96.104" x2="353.143" y2="96.104" gradientTransform="translate(0 200)"/><linearGradient xlink:href="#c" id="Y" gradientUnits="userSpaceOnUse" gradientTransform="translate(200 200) scale(.22857)" x1="166.781" y1="239.891" x2="718.885" y2="746.557"/><linearGradient xlink:href="#d" id="Z" gradientUnits="userSpaceOnUse" x1="218.312" y1="95.213" x2="382.983" y2="95.213" gradientTransform="translate(0 200)"/><linearGradient xlink:href="#c" id="aa" gradientUnits="userSpaceOnUse" gradientTransform="translate(200 200) scale(.22857)" x1="199" y1="789.833" x2="661.667" y2="789.833"/><linearGradient xlink:href="#d" id="ab" gradientUnits="userSpaceOnUse" x1="245.486" y1="180.533" x2="351.238" y2="180.533" gradientTransform="translate(0 200)"/><linearGradient xlink:href="#c" id="ac" gradientUnits="userSpaceOnUse" gradientTransform="translate(400 200) scale(.22857)" x1="88.716" y1="286.248" x2="772.142" y2="750.581"/><linearGradient xlink:href="#d" id="ad" gradientUnits="userSpaceOnUse" x1="452.267" y1="125.41" x2="550.4" y2="125.41" gradientTransform="translate(0 200)"/><linearGradient xlink:href="#c" id="ae" gradientUnits="userSpaceOnUse" gradientTransform="translate(400 200) scale(.22857)" x1="88.716" y1="286.248" x2="772.142" y2="750.581"/><linearGradient xlink:href="#d" id="af" gradientUnits="userSpaceOnUse" x1="426.743" y1="58.552" x2="466.21" y2="58.552" gradientTransform="translate(0 200)"/><linearGradient xlink:href="#c" id="ag" gradientUnits="userSpaceOnUse" gradientTransform="translate(400 200) scale(.22857)" x1="88.716" y1="286.248" x2="772.142" y2="750.581"/><linearGradient xlink:href="#d" id="ah" gradientUnits="userSpaceOnUse" x1="481.219" y1="55.886" x2="518.019" y2="55.886" gradientTransform="translate(0 200)"/><linearGradient xlink:href="#c" id="ai" gradientUnits="userSpaceOnUse" gradientTransform="translate(400 200) scale(.22857)" x1="88.716" y1="286.248" x2="772.142" y2="750.581"/><linearGradient xlink:href="#d" id="aj" gradientUnits="userSpaceOnUse" x1="540.648" y1="59.124" x2="573.257" y2="59.124" gradientTransform="translate(0 200)"/><linearGradient xlink:href="#c" id="ak" gradientUnits="userSpaceOnUse" gradientTransform="translate(400 200) scale(.22857)" x1="88.716" y1="286.248" x2="772.142" y2="750.581"/><linearGradient xlink:href="#d" id="al" gradientUnits="userSpaceOnUse" x1="435.505" y1="178.819" x2="530.971" y2="178.819" gradientTransform="translate(0 200)"/><linearGradient xlink:href="#c" id="am" gradientUnits="userSpaceOnUse" gradientTransform="translate(400 200) scale(.22857)" x1="88.716" y1="286.248" x2="772.142" y2="750.581"/><linearGradient xlink:href="#d" id="an" gradientUnits="userSpaceOnUse" x1="539.124" y1="171.962" x2="564.876" y2="171.962" gradientTransform="translate(0 200)"/><linearGradient xlink:href="#c" id="ao" gradientUnits="userSpaceOnUse" gradientTransform="translate(602.286 200.914) scale(.22857)" x1="130.983" y1="444.835" x2="720.017" y2="623.168"/><linearGradient xlink:href="#d" id="ap" gradientUnits="userSpaceOnUse" x1="632.225" y1="174.586" x2="699.485" y2="174.586" gradientTransform="translate(0 200)"/><linearGradient xlink:href="#c" id="aq" gradientUnits="userSpaceOnUse" gradientTransform="translate(598.171 200.914) scale(.22857)" x1="130.983" y1="444.835" x2="720.017" y2="623.168"/><linearGradient xlink:href="#d" id="ar" gradientUnits="userSpaceOnUse" x1="699.297" y1="174.586" x2="766.556" y2="174.586" gradientTransform="translate(0 200)"/><linearGradient xlink:href="#c" id="as" gradientUnits="userSpaceOnUse" gradientTransform="translate(600 200.914) scale(.22857)" x1="130.983" y1="444.835" x2="720.017" y2="623.168"/><linearGradient xlink:href="#d" id="at" gradientUnits="userSpaceOnUse" x1="656.233" y1="150.817" x2="737.672" y2="150.817" gradientTransform="translate(0 200)"/><linearGradient xlink:href="#c" id="au" gradientUnits="userSpaceOnUse" gradientTransform="translate(600 200.914) scale(.22857)" x1="130.983" y1="444.835" x2="720.017" y2="623.168"/><linearGradient xlink:href="#d" id="av" gradientUnits="userSpaceOnUse" x1="644.227" y1="93.364" x2="754.015" y2="93.364" gradientTransform="translate(0 200)"/><linearGradient xlink:href="#c" id="aw" gradientUnits="userSpaceOnUse" gradientTransform="translate(600 203.58) scale(.22857)" x1="322.65" y1="156.502" x2="501.102" y2="209.835"/><linearGradient xlink:href="#d" id="ax" gradientUnits="userSpaceOnUse" x1="681.691" y1="32.301" x2="717.966" y2="32.301" gradientTransform="translate(0 200)"/><linearGradient xlink:href="#c" id="ay" gradientUnits="userSpaceOnUse" gradientTransform="translate(800.457 202.743) scale(.22857)" x1="163.677" y1="244.156" x2="741.164" y2="814.156"/><linearGradient xlink:href="#d" id="az" gradientUnits="userSpaceOnUse" x1="827.927" y1="104.443" x2="974.56" y2="104.443" gradientTransform="translate(0 200)"/><linearGradient xlink:href="#c" id="aA" gradientUnits="userSpaceOnUse" x1="250.333" y1="541.667" x2="671.333" y2="718.333"/><linearGradient xlink:href="#d" id="aB" gradientUnits="userSpaceOnUse" x1="265.333" y1="605" x2="644.667" y2="605"/></defs><path fill="none" d="M0 0h200v200H0z"/><path d="M92.116 25.145v13.628H74.15v15.55h17.965v27.993h14.342V54.323h21.579v-15.55h-21.579V25.145H92.116z" fill="url(#e)" fill-rule="evenodd" stroke="url(#f)" stroke-width="3.657" stroke-linecap="round" stroke-linejoin="round"/><path d="M116.769 105.41c45.654-24.418 31.024 22.102 8.367 36.483-14.598 9.265-22.23-25.695-14.486-51.95l-19.564.236c7.214 23.234 2.814 58.938-13.057 51.714-28.272-12.867-38.782-60.21 6.356-36.46C58.3 52.111 17.674 72.5 21.485 99.6c4.142 29.438 37.74 55.927 37.058 67.729h84.307c-1.35-13.674 36.551-41.793 37.764-68.529 1.165-26.159-43.982-46.419-63.846 6.61z" fill="url(#g)" fill-rule="evenodd" stroke="url(#h)" stroke-width="3.657" stroke-linecap="round" stroke-linejoin="round"/><path fill="url(#i)" fill-rule="evenodd" stroke="url(#j)" stroke-width="3.657" stroke-linecap="round" stroke-linejoin="round" d="M45.333 173.333h109.714v15.238H45.333z"/><path fill="none" d="M200 0h200v200H200z"/><path d="M351.314 34.264c-47.858 143.4-55.253 143.666-97.143.679-.257 58.271 7.492 99.26 18.722 123h54.414c12.307-23.851 21.84-65.093 24.007-123.679z" fill="url(#k)" fill-rule="evenodd" stroke="url(#l)" stroke-width="3.657" stroke-linecap="round" stroke-linejoin="round"/><path d="M302.548 24.48c-17.368 94.112-8.847 194.983-82.408 42.587 2.518 46.593 13.445 79.606 32.822 98.878h91.9c19.744-19.032 31.71-51.533 36.293-97.65-70.249 152.429-64.15 50.384-78.607-43.814z" fill="url(#m)" fill-rule="evenodd" stroke="url(#n)" stroke-width="3.657" stroke-linecap="round" stroke-linejoin="round"/><path fill="url(#o)" fill-rule="evenodd" stroke="url(#p)" stroke-width="3.657" stroke-linecap="round" stroke-linejoin="round" d="M247.314 173.105h102.095v14.857H247.314z"/><g><path fill="none" d="M400 0h200v200H400z"/><path fill="url(#q)" fill-rule="evenodd" stroke="url(#r)" stroke-width="3.657" stroke-linecap="round" stroke-linejoin="round" d="M454.095 70.552h94.476v109.714h-94.476z"/><path fill="url(#s)" fill-rule="evenodd" stroke="url(#t)" stroke-width="3.657" stroke-linecap="round" stroke-linejoin="round" d="M428.571 40.076h35.81v36.952h-35.81z"/><path fill="url(#u)" fill-rule="evenodd" stroke="url(#v)" stroke-width="3.657" stroke-linecap="round" stroke-linejoin="round" d="M483.048 48.076h33.143v15.619h-33.143z"/><path fill="url(#w)" fill-rule="evenodd" stroke="url(#x)" stroke-width="3.657" stroke-linecap="round" stroke-linejoin="round" d="M542.476 31.314h28.952v55.619h-28.952z"/><path fill="url(#y)" fill-rule="evenodd" stroke="url(#z)" stroke-width="3.657" stroke-linecap="round" stroke-linejoin="round" d="M437.333 171.2h91.81v15.238h-91.81z"/><path fill="url(#A)" fill-rule="evenodd" stroke="url(#B)" stroke-width="3.657" stroke-linecap="round" stroke-linejoin="round" d="M540.952 157.105h22.095v29.714h-22.095z"/></g><g><path fill="none" d="M600 0h200v200H600z"/><path d="M697.656 158.073c-1.223 2.447-63.603 33.025-63.603 33.025l51.545-6.524 12.058-26.5z" fill="url(#C)" fill-rule="evenodd" stroke="url(#D)" stroke-width="3.657" stroke-linecap="round" stroke-linejoin="round"/><path d="M701.125 158.073c1.223 2.447 63.603 33.025 63.603 33.025l-54.593-6.524-9.01-26.5z" fill="url(#E)" fill-rule="evenodd" stroke="url(#F)" stroke-width="3.657" stroke-linecap="round" stroke-linejoin="round"/><path d="M675.033 142.223c-1.375 2.75-16.971 19.317-16.971 19.317l77.782 5.353-19.825-32.153-40.986 7.483z" fill="url(#G)" fill-rule="evenodd" stroke="url(#H)" stroke-width="3.657" stroke-linecap="round" stroke-linejoin="round"/><path d="M698.72 35.633c-1.376 2.75-52.664 115.462-52.664 115.462l106.13-9.348L698.72 35.633zm10.322 35.745l8.105 17.76-41.81 41.41s32.33-56.419 33.705-59.17z" fill="url(#I)" fill-rule="evenodd" stroke="url(#J)" stroke-width="3.657" stroke-linecap="round" stroke-linejoin="round"/><path d="M699.18 16.75c-1.376 2.752-15.66 26.071-15.66 26.071l32.618 5.03-16.958-31.1z" fill="url(#K)" fill-rule="evenodd" stroke="url(#L)" stroke-width="3.657" stroke-linecap="round" stroke-linejoin="round"/></g><g><path fill="none" d="M800 0h200v200H800z"/><path d="M886.003 20.23c-.386 26.595.972 16.552-15.81 4.274 2.59 17.349.831 17.92-3.652 25.345-2.454 4.063-4.617 16.856-6.152 19.676-9.304 17.087-30.67 39.394-30.634 46.666.047 9.205 10.995 17.445 21.01 7.71-9.37 13.717 18.918-.061 30.773-8.521 15.691 9.66 37.614-.91 38.021-16.432 7.141 35.108-59.54 41.205-63.102 86.743 49.697 11.345 77.377-25.617 107.668 2.965C979.61 143.76 981.04 68.71 909.053 40.572c-9.784-3.824-13.895-13.662-23.05-20.343zm-.3 49.525c-1.628 2.308-5.05 6.076-8.051 5.524-2.776-.51-3.892-1.45-4.02-4.738-.108-2.767 9.698-2.678 12.07-.786z" fill="url(#M)" fill-rule="evenodd" stroke="url(#N)" stroke-width="3.657" stroke-linecap="round" stroke-linejoin="round"/></g><g><path fill="none" d="M1000 0h200v200h-200z"/><path transform="translate(996.952 .381) scale(.22857)" d="M636.667 605a181.667 185 0 1 1-363.334 0 181.667 185 0 1 1 363.334 0z" opacity=".99" fill="url(#O)" fill-rule="evenodd" stroke="url(#P)" stroke-width="16" stroke-linecap="round" stroke-linejoin="round"/></g><g><path fill="none" d="M0 200h200v200H0z"/><path d="M92.116 225.145v13.628H74.15v15.55h17.965v27.993h14.342v-27.993h21.579v-15.55h-21.579v-13.628H92.116z" fill="url(#Q)" fill-rule="evenodd" stroke="url(#R)" stroke-width="3.657" stroke-linecap="round" stroke-linejoin="round"/><path d="M116.769 305.41c45.654-24.418 31.024 22.102 8.367 36.483-14.598 9.265-22.23-25.695-14.486-51.95l-19.564.236c7.214 23.234 2.814 58.938-13.057 51.714-28.272-12.867-38.782-60.21 6.356-36.46-26.084-53.321-66.711-32.932-62.9-5.833 4.142 29.438 37.74 55.927 37.058 67.729h84.307c-1.35-13.674 36.551-41.793 37.764-68.529 1.165-26.159-43.982-46.419-63.846 6.61z" fill="url(#S)" fill-rule="evenodd" stroke="url(#T)" stroke-width="3.657" stroke-linecap="round" stroke-linejoin="round"/><path fill="url(#U)" fill-rule="evenodd" stroke="url(#V)" stroke-width="3.657" stroke-linecap="round" stroke-linejoin="round" d="M45.333 373.333h109.714v15.238H45.333z"/><path fill="none" d="M200 200h200v200H200z"/><path d="M351.314 234.264c-47.858 143.4-55.253 143.666-97.143.679-.257 58.271 7.492 99.26 18.722 123h54.414c12.307-23.851 21.84-65.093 24.007-123.679z" fill="url(#W)" fill-rule="evenodd" stroke="url(#X)" stroke-width="3.657" stroke-linecap="round" stroke-linejoin="round"/><path d="M302.548 224.481c-17.368 94.111-8.847 194.982-82.408 42.586 2.518 46.593 13.445 79.606 32.822 98.878h91.9c19.744-19.032 31.71-51.533 36.293-97.65-70.249 152.429-64.15 50.384-78.607-43.814z" fill="url(#Y)" fill-rule="evenodd" stroke="url(#Z)" stroke-width="3.657" stroke-linecap="round" stroke-linejoin="round"/><path fill="url(#aa)" fill-rule="evenodd" stroke="url(#ab)" stroke-width="3.657" stroke-linecap="round" stroke-linejoin="round" d="M247.314 373.105h102.095v14.857H247.314z"/><g><path fill="none" d="M400 200h200v200H400z"/><path fill="url(#ac)" fill-rule="evenodd" stroke="url(#ad)" stroke-width="3.657" stroke-linecap="round" stroke-linejoin="round" d="M454.095 270.552h94.476v109.714h-94.476z"/><path fill="url(#ae)" fill-rule="evenodd" stroke="url(#af)" stroke-width="3.657" stroke-linecap="round" stroke-linejoin="round" d="M428.571 240.076h35.81v36.952h-35.81z"/><path fill="url(#ag)" fill-rule="evenodd" stroke="url(#ah)" stroke-width="3.657" stroke-linecap="round" stroke-linejoin="round" d="M483.048 248.076h33.143v15.619h-33.143z"/><path fill="url(#ai)" fill-rule="evenodd" stroke="url(#aj)" stroke-width="3.657" stroke-linecap="round" stroke-linejoin="round" d="M542.476 231.314h28.952v55.619h-28.952z"/><path fill="url(#ak)" fill-rule="evenodd" stroke="url(#al)" stroke-width="3.657" stroke-linecap="round" stroke-linejoin="round" d="M437.333 371.2h91.81v15.238h-91.81z"/><path fill="url(#am)" fill-rule="evenodd" stroke="url(#an)" stroke-width="3.657" stroke-linecap="round" stroke-linejoin="round" d="M540.952 357.105h22.095v29.714h-22.095z"/></g><g><path fill="none" d="M600 200h200v200H600z"/><path d="M697.656 358.073c-1.223 2.447-63.603 33.025-63.603 33.025l51.545-6.524 12.058-26.5z" fill="url(#ao)" fill-rule="evenodd" stroke="url(#ap)" stroke-width="3.657" stroke-linecap="round" stroke-linejoin="round"/><path d="M701.125 358.073c1.223 2.447 63.603 33.025 63.603 33.025l-54.593-6.524-9.01-26.5z" fill="url(#aq)" fill-rule="evenodd" stroke="url(#ar)" stroke-width="3.657" stroke-linecap="round" stroke-linejoin="round"/><path d="M675.033 342.223c-1.375 2.75-16.971 19.317-16.971 19.317l77.782 5.353-19.825-32.153-40.986 7.483z" fill="url(#as)" fill-rule="evenodd" stroke="url(#at)" stroke-width="3.657" stroke-linecap="round" stroke-linejoin="round"/><path d="M698.72 235.633c-1.376 2.75-52.664 115.462-52.664 115.462l106.13-9.348-53.466-106.114zm10.322 35.745l8.105 17.76-41.81 41.41s32.33-56.419 33.705-59.17z" fill="url(#au)" fill-rule="evenodd" stroke="url(#av)" stroke-width="3.657" stroke-linecap="round" stroke-linejoin="round"/><path d="M699.18 216.75c-1.376 2.752-15.66 26.071-15.66 26.071l32.618 5.03-16.958-31.1z" fill="url(#aw)" fill-rule="evenodd" stroke="url(#ax)" stroke-width="3.657" stroke-linecap="round" stroke-linejoin="round"/></g><g><path fill="none" d="M800 200h200v200H800z"/><path d="M886.003 220.23c-.386 26.595.972 16.552-15.81 4.274 2.59 17.349.831 17.92-3.652 25.345-2.454 4.063-4.617 16.856-6.152 19.676-9.304 17.087-30.67 39.394-30.634 46.666.047 9.205 10.995 17.445 21.01 7.71-9.37 13.717 18.918-.061 30.773-8.521 15.691 9.66 37.614-.91 38.021-16.432 7.141 35.108-59.54 41.205-63.102 86.743 49.697 11.345 77.377-25.617 107.668 2.965 15.485-44.897 16.914-119.946-55.072-148.084-9.784-3.824-13.895-13.662-23.05-20.343zm-.3 49.525c-1.628 2.308-5.05 6.076-8.051 5.524-2.776-.51-3.892-1.45-4.02-4.738-.108-2.767 9.698-2.678 12.07-.786z" fill="url(#ay)" fill-rule="evenodd" stroke="url(#az)" stroke-width="3.657" stroke-linecap="round" stroke-linejoin="round"/></g><g><path fill="none" d="M1000 200h200v200h-200z"/><path d="M636.667 605a181.667 185 0 1 1-363.334 0 181.667 185 0 1 1 363.334 0z" transform="translate(996.952 200.381) scale(.22857)" opacity=".99" fill="url(#aA)" fill-rule="evenodd" stroke="url(#aB)" stroke-width="16" stroke-linecap="round" stroke-linejoin="round"/></g></g></svg>