<svg xmlns="http://www.w3.org/2000/svg" width="140" height="112"><path fill="#f0dec7" d="M76 0h16v16H76z"/><path fill="#b5876b" d="M92 0h16v16H92z"/><path fill="#f0dec7" d="M108 0h16v16h-16z"/><path fill="#b5876b" d="M124 0h16v16h-16z"/><path fill="#f0dec7" d="M92 16h16v16H92z"/><path fill="#b5876b" d="M108 16h16v16h-16z"/><path fill="#f0dec7" d="M124 16h16v16h-16z"/><path fill="#b5876b" d="M76 16h16v16H76z"/><path fill="#f0dec7" d="M76 32h16v16H76z"/><path fill="#b5876b" d="M92 32h16v16H92z"/><path fill="#f0dec7" d="M108 32h16v16h-16z"/><path fill="#b5876b" d="M124 32h16v16h-16z"/><path fill="#f0dec7" d="M92 48h16v16H92z"/><path fill="#b5876b" d="M108 48h16v16h-16z"/><path fill="#f0dec7" d="M124 48h16v16h-16z"/><path fill="#b5876b" d="M76 48h16v16H76z"/><path fill="#404040" d="M0 0h66v4H0zM0 12h66v4H0zM0 24h66v4H0zM0 36h66v4H0zM0 48h66v4H0zM0 60h66v4H0zM0 72h140v4H0zM0 84h140v4H0zM0 96h140v4H0zM0 108h140v4H0z"/></svg>