<svg xmlns="http://www.w3.org/2000/svg" width="140" height="112"><path fill="#f0dec7" d="M38 48h16v16H38z"/><path fill="#b5876b" d="M54 48h16v16H54z"/><path fill="#f0dec7" d="M70 48h16v16H70z"/><path fill="#b5876b" d="M86 48h16v16H86z"/><path fill="#f0dec7" d="M54 64h16v16H54z"/><path fill="#b5876b" d="M70 64h16v16H70z"/><path fill="#f0dec7" d="M86 64h16v16H86z"/><path fill="#b5876b" d="M38 64h16v16H38z"/><path fill="#f0dec7" d="M38 80h16v16H38z"/><path fill="#b5876b" d="M54 80h16v16H54z"/><path fill="#f0dec7" d="M70 80h16v16H70z"/><path fill="#b5876b" d="M86 80h16v16H86z"/><path fill="#f0dec7" d="M54 96h16v16H54z"/><path fill="#b5876b" d="M70 96h16v16H70z"/><path fill="#f0dec7" d="M86 96h16v16H86z"/><path fill="#b5876b" d="M38 96h16v16H38z"/><path fill="#404040" d="M0 12h140v4H0zM0 24h140v4H0zM0 36h140v4H0zM0 0h140v4H0z"/></svg>