<svg xmlns="http://www.w3.org/2000/svg" width="140" height="112"><path fill="#f0dec7" d="M38 24h16v16H38z"/><path fill="#b5876b" d="M54 24h16v16H54z"/><path fill="#f0dec7" d="M70 24h16v16H70z"/><path fill="#b5876b" d="M86 24h16v16H86z"/><path fill="#f0dec7" d="M54 40h16v16H54z"/><path fill="#b5876b" d="M70 40h16v16H70z"/><path fill="#f0dec7" d="M86 40h16v16H86z"/><path fill="#b5876b" d="M38 40h16v16H38z"/><path fill="#f0dec7" d="M38 56h16v16H38z"/><path fill="#b5876b" d="M54 56h16v16H54z"/><path fill="#f0dec7" d="M70 56h16v16H70z"/><path fill="#b5876b" d="M86 56h16v16H86z"/><path fill="#f0dec7" d="M54 72h16v16H54z"/><path fill="#b5876b" d="M70 72h16v16H70z"/><path fill="#f0dec7" d="M86 72h16v16H86z"/><path fill="#b5876b" d="M38 72h16v16H38z"/><path fill="#404040" d="M0 0h140v4H0zM0 12h140v4H0zM0 96h140v4H0zM0 108h140v4H0z"/></svg>