<svg xmlns="http://www.w3.org/2000/svg" width="140" height="112"><path fill="#f0dec7" d="M0 24h16v16H0z"/><path fill="#b5876b" d="M16 24h16v16H16z"/><path fill="#f0dec7" d="M32 24h16v16H32z"/><path fill="#b5876b" d="M48 24h16v16H48z"/><path fill="#f0dec7" d="M16 40h16v16H16z"/><path fill="#b5876b" d="M32 40h16v16H32z"/><path fill="#f0dec7" d="M48 40h16v16H48z"/><path fill="#b5876b" d="M0 40h16v16H0z"/><path fill="#f0dec7" d="M0 56h16v16H0z"/><path fill="#b5876b" d="M16 56h16v16H16z"/><path fill="#f0dec7" d="M32 56h16v16H32z"/><path fill="#b5876b" d="M48 56h16v16H48z"/><path fill="#f0dec7" d="M16 72h16v16H16z"/><path fill="#b5876b" d="M32 72h16v16H32z"/><path fill="#f0dec7" d="M48 72h16v16H48z"/><path fill="#b5876b" d="M0 72h16v16H0z"/><path fill="#404040" d="M74 24h56v4H74zM74 36h56v4H74zM74 48h56v4H74zM74 60h56v4H74zM74 72h56v4H74zM74 84h56v4H74zM136 24h4v64h-4z"/></svg>