<svg xmlns="http://www.w3.org/2000/svg" width="140" height="112"><path fill="#f0dec7" d="M76 24h16v16H76z"/><path fill="#b5876b" d="M92 24h16v16H92z"/><path fill="#f0dec7" d="M108 24h16v16h-16z"/><path fill="#b5876b" d="M124 24h16v16h-16z"/><path fill="#f0dec7" d="M92 40h16v16H92z"/><path fill="#b5876b" d="M108 40h16v16h-16z"/><path fill="#f0dec7" d="M124 40h16v16h-16z"/><path fill="#b5876b" d="M76 40h16v16H76z"/><path fill="#f0dec7" d="M76 56h16v16H76z"/><path fill="#b5876b" d="M92 56h16v16H92z"/><path fill="#f0dec7" d="M108 56h16v16h-16z"/><path fill="#b5876b" d="M124 56h16v16h-16z"/><path fill="#f0dec7" d="M92 72h16v16H92z"/><path fill="#b5876b" d="M108 72h16v16h-16z"/><path fill="#f0dec7" d="M124 72h16v16h-16z"/><path fill="#b5876b" d="M76 72h16v16H76z"/><path fill="#404040" d="M0 24h56v4H0zM0 36h56v4H0zM0 48h56v4H0zM0 60h56v4H0zM0 72h56v4H0zM0 84h56v4H0zM62 24h4v64h-4z"/></svg>