<svg xmlns="http://www.w3.org/2000/svg" width="140" height="112"><path fill="#404040" d="M0 12h140v4H0zM0 24h140v4H0zM0 36h140v4H0zM0 48h140v4H0zM0 60h140v4H0zM0 72h140v4H0zM0 84h140v4H0zM0 96h140v4H0zM0 108h140v4H0z"/><path fill="#fff" stroke="#0074a2" stroke-width="2" d="M35 21h70v70H35z"/><path fill="#0074a2" d="M34 10h72v12H34z"/><path fill="#f0dec7" d="M58 68h12v12H58z"/><path fill="#b5876b" d="M46 68h12v12H46zM70 68h12v12H70z"/><path fill="#f0dec7" d="M82 68h12v12H82zM70 56h12v12H70z"/><path fill="#b5876b" d="M58 56h12v12H58zM82 56h12v12H82z"/><path fill="#f0dec7" d="M46 56h12v12H46zM58 44h12v12H58z"/><path fill="#b5876b" d="M46 44h12v12H46zM70 44h12v12H70z"/><path fill="#f0dec7" d="M82 44h12v12H82zM70 32h12v12H70z"/><path fill="#b5876b" d="M58 32h12v12H58zM82 32h12v12H82z"/><path fill="#f0dec7" d="M46 32h12v12H46z"/><path fill="#404040" d="M0 0h140v4H0z"/></svg>