<svg xmlns="http://www.w3.org/2000/svg" width="140" height="112"><path fill="#f0dec7" d="M38 0h16v16H38z"/><path fill="#b5876b" d="M54 0h16v16H54z"/><path fill="#f0dec7" d="M70 0h16v16H70z"/><path fill="#b5876b" d="M86 0h16v16H86z"/><path fill="#f0dec7" d="M54 16h16v16H54z"/><path fill="#b5876b" d="M70 16h16v16H70z"/><path fill="#f0dec7" d="M86 16h16v16H86z"/><path fill="#b5876b" d="M38 16h16v16H38z"/><path fill="#f0dec7" d="M38 32h16v16H38z"/><path fill="#b5876b" d="M54 32h16v16H54z"/><path fill="#f0dec7" d="M70 32h16v16H70z"/><path fill="#b5876b" d="M86 32h16v16H86z"/><path fill="#f0dec7" d="M54 48h16v16H54z"/><path fill="#b5876b" d="M70 48h16v16H70z"/><path fill="#f0dec7" d="M86 48h16v16H86z"/><path fill="#b5876b" d="M38 48h16v16H38z"/><path fill="#404040" d="M0 72h140v4H0zM0 84h140v4H0zM0 96h140v4H0zM0 108h140v4H0z"/></svg>