<svg xmlns="http://www.w3.org/2000/svg" width="16" height="16"><defs><linearGradient id="a"><stop offset="0" stop-opacity=".345"/><stop offset="1" stop-opacity=".063"/></linearGradient></defs><path fill="#a0a0a0" d="M0 12h4v4H0z"/><path fill="#fff" d="M4 12h4v4H4z"/><path fill="#a0a0a0" d="M8 12h4v4H8z"/><path fill="#fff" d="M12 12h4v4h-4z"/><path fill="#a0a0a0" d="M4 8h4v4H4z"/><path fill="#fff" d="M8 8h4v4H8z"/><path fill="#a0a0a0" d="M12 8h4v4h-4z"/><path fill="#fff" d="M0 8h4v4H0z"/><path fill="#a0a0a0" d="M0 4h4v4H0z"/><path fill="#fff" d="M4 4h4v4H4z"/><path fill="#a0a0a0" d="M8 4h4v4H8z"/><path fill="#fff" d="M12 4h4v4h-4z"/><path fill="#a0a0a0" d="M4 0h4v4H4z"/><path fill="#fff" d="M8 0h4v4H8z"/><path fill="#a0a0a0" d="M12 0h4v4h-4z"/><path fill="#fff" d="M0 0h4v4H0z"/></svg>