<?xml version="1.0" encoding="UTF-8" standalone="no"?>
<!-- Created with Inkscape (http://www.inkscape.org/) -->

<svg
   xmlns:dc="http://purl.org/dc/elements/1.1/"
   xmlns:cc="http://creativecommons.org/ns#"
   xmlns:rdf="http://www.w3.org/1999/02/22-rdf-syntax-ns#"
   xmlns:svg="http://www.w3.org/2000/svg"
   xmlns="http://www.w3.org/2000/svg"
   xmlns:sodipodi="http://sodipodi.sourceforge.net/DTD/sodipodi-0.dtd"
   xmlns:inkscape="http://www.inkscape.org/namespaces/inkscape"
   width="40"
   height="40"
   id="svg3836"
   version="1.1"
   inkscape:version="0.48.4 r9939"
   sodipodi:docname="board-start.svg">
  <defs
     id="defs3838" />
  <sodipodi:namedview
     id="base"
     pagecolor="#ffffff"
     bordercolor="#666666"
     borderopacity="1.0"
     inkscape:pageopacity="0.0"
     inkscape:pageshadow="2"
     inkscape:zoom="11.2"
     inkscape:cx="1.2341817"
     inkscape:cy="15.991731"
     inkscape:document-units="px"
     inkscape:current-layer="layer1"
     showgrid="false"
     inkscape:window-width="1680"
     inkscape:window-height="975"
     inkscape:window-x="1280"
     inkscape:window-y="25"
     inkscape:window-maximized="1" />
  <metadata
     id="metadata3841">
    <rdf:RDF>
      <cc:Work
         rdf:about="">
        <dc:format>image/svg+xml</dc:format>
        <dc:type
           rdf:resource="http://purl.org/dc/dcmitype/StillImage" />
        <dc:title />
      </cc:Work>
    </rdf:RDF>
  </metadata>
  <g
     inkscape:label="Calque 1"
     inkscape:groupmode="layer"
     id="layer1"
     transform="translate(0,-1012.3622)">
    <rect
       style="fill:#f0dec7;fill-opacity:1;stroke:none"
       id="rect2985-0-7"
       width="10"
       height="10"
       x="10"
       y="1042.3622" />
    <rect
       style="fill:#b5876b;fill-opacity:1;stroke:none"
       id="rect3755-2-3-1"
       width="10"
       height="10"
       x="0"
       y="1042.3622" />
    <rect
       style="fill:#f0dec7;fill-opacity:1;stroke:none"
       id="rect2985-0-7-6"
       width="10"
       height="10"
       x="29.999998"
       y="1042.3622" />
    <rect
       style="fill:#b5876b;fill-opacity:1;stroke:none"
       id="rect3755-2-3-1-4"
       width="10"
       height="10"
       x="20"
       y="1042.3622" />
    <rect
       style="fill:#f0dec7;fill-opacity:1;stroke:none"
       id="rect2985-0-7-8"
       width="10"
       height="10"
       x="20"
       y="1032.3622" />
    <rect
       style="fill:#b5876b;fill-opacity:1;stroke:none"
       id="rect3755-2-3-1-47"
       width="10"
       height="10"
       x="10"
       y="1032.3622" />
    <rect
       style="fill:#f0dec7;fill-opacity:1;stroke:none"
       id="rect2985-0-7-6-4"
       width="10"
       height="10"
       x="0"
       y="1032.3622" />
    <rect
       style="fill:#b5876b;fill-opacity:1;stroke:none"
       id="rect3755-2-3-1-4-5"
       width="10"
       height="10"
       x="30"
       y="1032.3622" />
    <rect
       style="fill:#f0dec7;fill-opacity:1;stroke:none"
       id="rect2985-0-7-9"
       width="10"
       height="10"
       x="10.000002"
       y="1022.3622" />
    <rect
       style="fill:#b5876b;fill-opacity:1;stroke:none"
       id="rect3755-2-3-1-40"
       width="10"
       height="10"
       x="0"
       y="1022.3622" />
    <rect
       style="fill:#f0dec7;fill-opacity:1;stroke:none"
       id="rect2985-0-7-6-1"
       width="10"
       height="10"
       x="29.999998"
       y="1022.3622" />
    <rect
       style="fill:#b5876b;fill-opacity:1;stroke:none"
       id="rect3755-2-3-1-4-7"
       width="10"
       height="10"
       x="20.000002"
       y="1022.3622" />
    <rect
       style="fill:#f0dec7;fill-opacity:1;stroke:none"
       id="rect2985-0-7-8-6"
       width="10"
       height="10"
       x="20.000002"
       y="1012.3622" />
    <rect
       style="fill:#b5876b;fill-opacity:1;stroke:none"
       id="rect3755-2-3-1-47-6"
       width="10"
       height="10"
       x="10.000002"
       y="1012.3622" />
    <rect
       style="fill:#f0dec7;fill-opacity:1;stroke:none"
       id="rect2985-0-7-6-4-8"
       width="10"
       height="10"
       x="0"
       y="1012.3622" />
    <rect
       style="fill:#b5876b;fill-opacity:1;stroke:none"
       id="rect3755-2-3-1-4-5-2"
       width="10"
       height="10"
       x="30.000002"
       y="1012.3622" />
    <path
       sodipodi:type="arc"
       style="fill:#000000;fill-opacity:1;stroke:none"
       id="path4005-1"
       sodipodi:cx="-19.598215"
       sodipodi:cy="17.857143"
       sodipodi:rx="3.1696429"
       sodipodi:ry="5.2678571"
       d="m -16.428572,17.857143 a 3.1696429,5.2678571 0 1 1 -6.339286,0 3.1696429,5.2678571 0 1 1 6.339286,0 z"
       transform="matrix(1.2619718,0,0,0.75932204,29.732395,1003.8029)" />
    <path
       sodipodi:type="arc"
       style="fill:#ffffff;fill-opacity:1;stroke:#000000;stroke-width:0.54482985;stroke-miterlimit:4;stroke-opacity:1;stroke-dasharray:none"
       id="path4005-1-0"
       sodipodi:cx="-19.598215"
       sodipodi:cy="17.857143"
       sodipodi:rx="3.1696429"
       sodipodi:ry="5.2678571"
       d="m -16.428572,17.857143 a 3.1696429,5.2678571 0 1 1 -6.339286,0 3.1696429,5.2678571 0 1 1 6.339286,0 z"
       transform="matrix(1.1830986,0,0,0.71186442,28.186621,1034.6503)" />
    <path
       sodipodi:type="arc"
       style="fill:#000000;fill-opacity:1;stroke:none"
       id="path4005-1-2"
       sodipodi:cx="-19.598215"
       sodipodi:cy="17.857143"
       sodipodi:rx="3.1696429"
       sodipodi:ry="5.2678571"
       d="m -16.428572,17.857143 a 3.1696429,5.2678571 0 1 1 -6.339286,0 3.1696429,5.2678571 0 1 1 6.339286,0 z"
       transform="matrix(1.2619718,0,0,0.75932204,39.732395,1003.8029)" />
    <path
       sodipodi:type="arc"
       style="fill:#000000;fill-opacity:1;stroke:none"
       id="path4005-1-5"
       sodipodi:cx="-19.598215"
       sodipodi:cy="17.857143"
       sodipodi:rx="3.1696429"
       sodipodi:ry="5.2678571"
       d="m -16.428572,17.857143 a 3.1696429,5.2678571 0 1 1 -6.339286,0 3.1696429,5.2678571 0 1 1 6.339286,0 z"
       transform="matrix(1.2619718,0,0,0.75932204,49.732395,1003.8029)" />
    <path
       sodipodi:type="arc"
       style="fill:#000000;fill-opacity:1;stroke:none"
       id="path4005-1-21"
       sodipodi:cx="-19.598215"
       sodipodi:cy="17.857143"
       sodipodi:rx="3.1696429"
       sodipodi:ry="5.2678571"
       d="m -16.428572,17.857143 a 3.1696429,5.2678571 0 1 1 -6.339286,0 3.1696429,5.2678571 0 1 1 6.339286,0 z"
       transform="matrix(1.2619718,0,0,0.75932204,59.732395,1003.8029)" />
    <path
       sodipodi:type="arc"
       style="fill:#ffffff;fill-opacity:1;stroke:#000000;stroke-width:0.54482985;stroke-miterlimit:4;stroke-opacity:1;stroke-dasharray:none"
       id="path4005-1-0-2"
       sodipodi:cx="-19.598215"
       sodipodi:cy="17.857143"
       sodipodi:rx="3.1696429"
       sodipodi:ry="5.2678571"
       d="m -16.428572,17.857143 a 3.1696429,5.2678571 0 1 1 -6.339286,0 3.1696429,5.2678571 0 1 1 6.339286,0 z"
       transform="matrix(1.1830986,0,0,0.71186442,38.186621,1034.6503)" />
    <path
       sodipodi:type="arc"
       style="fill:#ffffff;fill-opacity:1;stroke:#000000;stroke-width:0.54482985;stroke-miterlimit:4;stroke-opacity:1;stroke-dasharray:none"
       id="path4005-1-0-7"
       sodipodi:cx="-19.598215"
       sodipodi:cy="17.857143"
       sodipodi:rx="3.1696429"
       sodipodi:ry="5.2678571"
       d="m -16.428572,17.857143 a 3.1696429,5.2678571 0 1 1 -6.339286,0 3.1696429,5.2678571 0 1 1 6.339286,0 z"
       transform="matrix(1.1830986,0,0,0.71186442,48.186621,1034.6503)" />
    <path
       sodipodi:type="arc"
       style="fill:#ffffff;fill-opacity:1;stroke:#000000;stroke-width:0.54482985;stroke-miterlimit:4;stroke-opacity:1;stroke-dasharray:none"
       id="path4005-1-0-0"
       sodipodi:cx="-19.598215"
       sodipodi:cy="17.857143"
       sodipodi:rx="3.1696429"
       sodipodi:ry="5.2678571"
       d="m -16.428572,17.857143 a 3.1696429,5.2678571 0 1 1 -6.339286,0 3.1696429,5.2678571 0 1 1 6.339286,0 z"
       transform="matrix(1.1830986,0,0,0.71186442,58.186621,1034.6503)" />
  </g>
</svg>
